<svg width="134" height="160" viewBox="0 0 134 160" fill="none" xmlns="http://www.w3.org/2000/svg">
<path d="M71.9241 2.21713C58.4751 -0.0288386 29.8584 2.35636 22.9841 29.8649C14.3912 64.2506 53.6584 100.095 108.407 102.68C163.155 105.265 113.39 51.4359 85.7341 51.8653C54.4497 52.3511 24.0228 76.2934 47.9415 114.297C71.8602 152.3 100.238 140.53 93.1245 126.069C86.0105 111.609 69.5297 96.4656 30.215 111.965C-1.23686 124.364 6.29413 147.523 13.9911 157.552M17.5393 147.138C15.5255 149.072 15.5307 153.713 13.856 158.419C10.3166 154.398 3.62186 151.795 0.640964 152.722" stroke="url(#paint0_linear_4490_2269)" stroke-width="1.5"/>
<defs>
<linearGradient id="paint0_linear_4490_2269" x1="26.9258" y1="146.834" x2="83.7063" y2="-24.8162" gradientUnits="userSpaceOnUse">
<stop stop-color="#ff6f00"/>
<stop offset="1" stop-color="#ff6f00" stop-opacity="0"/>
</linearGradient>
</defs>
</svg>