<svg xmlns="http://www.w3.org/2000/svg" width="1324" height="612" fill="none"><path stroke="url(#a)" stroke-opacity=".4" stroke-width=".371" d="M38.59 8.906H8.904V38.59M38.59 8.906V38.59m0-29.684h29.685M38.589 38.59H8.905m29.684 0v29.685m0-29.685h29.685m-59.369 0v29.685m29.684 0H8.905m29.684 0v29.684m0-29.684h29.685m-59.369 0v29.684m29.684 0H8.905m29.684 0v29.684m0-29.684h29.685m-59.369 0v29.684m29.684 0H8.905m29.684 0v29.684m0-29.684h29.685m-59.369 0v29.684m29.684 0H8.905m29.684 0v29.684m0-29.684h29.685m-59.369 0v29.684m29.684 0H8.905m29.684 0v29.685m0-29.685h29.685m-59.369 0v29.685m29.684 0H8.905m29.684 0v29.684m0-29.684h29.685m-59.369 0v29.684m29.684 0H8.905m29.684 0v29.684m0-29.684h29.685m-59.369 0v29.684m29.684 0H8.905m29.684 0v29.684m0-29.684h29.685m-59.369 0v29.684m29.684 0H8.905m29.684 0v29.685m0-29.685h29.685m-59.369 0v29.685m29.684 0H8.905m29.684 0v29.684m0-29.684h29.685m-59.369 0v29.684m29.684 0H8.905m29.684 0v29.684m0-29.684h29.685m-59.369 0v29.684m29.684 0H8.905m29.684 0v29.684m0-29.684h29.685m-59.369 0v29.684m29.684 0H8.905m29.684 0v29.684m0-29.684h29.685m-59.369 0v29.684m29.684 0H8.905m29.684 0v29.685m0-29.685h29.685m-59.369 0v29.685m29.684 0H8.905m29.684 0v29.684m0-29.684h29.685m-59.369 0v29.684m29.684 0H8.905m29.684 0v29.684m0-29.684h29.685m-59.369 0v29.684m29.684 0H8.905m29.684 0v29.684m0-29.684h29.685m-59.369 0v29.684m29.684 0H8.905m29.684 0v29.684m0-29.684h29.685m-59.369 0v29.684H38.59m0 0h29.685m0-593.684V38.59m0-29.684h29.684M68.274 38.59v29.685m0-29.685h29.684M68.274 68.275v29.684m0-29.684h29.684M68.274 97.959v29.684m0-29.684h29.684m-29.684 29.684v29.684m0-29.684h29.684m-29.684 29.684v29.684m0-29.684h29.684m-29.684 29.684v29.685m0-29.685h29.684m-29.684 29.685v29.684m0-29.684h29.684M68.274 246.38v29.684m0-29.684h29.684m-29.684 29.684v29.684m0-29.684h29.684m-29.684 29.684v29.685m0-29.685h29.684m-29.684 29.685v29.684m0-29.684h29.684m-29.684 29.684v29.684m0-29.684h29.684m-29.684 29.684v29.684m0-29.684h29.684m-29.684 29.684v29.684m0-29.684h29.684m-29.684 29.684v29.685m0-29.685h29.684m-29.684 29.685v29.684m0-29.684h29.684m-29.684 29.684v29.684m0-29.684h29.684m-29.684 29.684v29.684m0-29.684h29.684m-29.684 29.684v29.684m0-29.684h29.684M68.274 602.59h29.684m0-593.684V38.59m0-29.684h29.684M97.958 38.59v29.685m0-29.685h29.684M97.958 68.275v29.684m0-29.684h29.684M97.958 97.959v29.684m0-29.684h29.684m-29.684 29.684v29.684m0-29.684h29.684m-29.684 29.684v29.684m0-29.684h29.684m-29.684 29.684v29.685m0-29.685h29.684m-29.684 29.685v29.684m0-29.684h29.684M97.958 246.38v29.684m0-29.684h29.684m-29.684 29.684v29.684m0-29.684h29.684m-29.684 29.684v29.685m0-29.685h29.684m-29.684 29.685v29.684m0-29.684h29.684m-29.684 29.684v29.684m0-29.684h29.684m-29.684 29.684v29.684m0-29.684h29.684m-29.684 29.684v29.684m0-29.684h29.684m-29.684 29.684v29.685m0-29.685h29.684m-29.684 29.685v29.684m0-29.684h29.684m-29.684 29.684v29.684m0-29.684h29.684m-29.684 29.684v29.684m0-29.684h29.684m-29.684 29.684v29.684m0-29.684h29.684M97.958 602.59h29.684m0-593.684V38.59m0-29.684h29.684M127.642 38.59v29.685m0-29.685h29.684m-29.684 29.685v29.684m0-29.684h29.684m-29.684 29.684v29.684m0-29.684h29.684m-29.684 29.684v29.684m0-29.684h29.684m-29.684 29.684v29.684m0-29.684h29.684m-29.684 29.684v29.685m0-29.685h29.684m-29.684 29.685v29.684m0-29.684h29.684m-29.684 29.684v29.684m0-29.684h29.684m-29.684 29.684v29.684m0-29.684h29.684m-29.684 29.684v29.685m0-29.685h29.684m-29.684 29.685v29.684m0-29.684h29.684m-29.684 29.684v29.684m0-29.684h29.684m-29.684 29.684v29.684m0-29.684h29.684m-29.684 29.684v29.684m0-29.684h29.684m-29.684 29.684v29.685m0-29.685h29.684m-29.684 29.685v29.684m0-29.684h29.684m-29.684 29.684v29.684m0-29.684h29.684m-29.684 29.684v29.684m0-29.684h29.684m-29.684 29.684v29.684m0-29.684h29.684m-29.684 29.684h29.684m0-593.684V38.59m0-29.684h29.684M157.326 38.59v29.685m0-29.685h29.684m-29.684 29.685v29.684m0-29.684h29.684m-29.684 29.684v29.684m0-29.684h29.684m-29.684 29.684v29.684m0-29.684h29.684m-29.684 29.684v29.684m0-29.684h29.684m-29.684 29.684v29.685m0-29.685h29.684m-29.684 29.685v29.684m0-29.684h29.684m-29.684 29.684v29.684m0-29.684h29.684m-29.684 29.684v29.684m0-29.684h29.684m-29.684 29.684v29.685m0-29.685h29.684m-29.684 29.685v29.684m0-29.684h29.684m-29.684 29.684v29.684m0-29.684h29.684m-29.684 29.684v29.684m0-29.684h29.684m-29.684 29.684v29.684m0-29.684h29.684m-29.684 29.684v29.685m0-29.685h29.684m-29.684 29.685v29.684m0-29.684h29.684m-29.684 29.684v29.684m0-29.684h29.684m-29.684 29.684v29.684m0-29.684h29.684m-29.684 29.684v29.684m0-29.684h29.684m-29.684 29.684h29.684m0-593.684V38.59m0-29.684h29.685M187.01 38.59v29.685m0-29.685h29.685M187.01 68.275v29.684m0-29.684h29.685M187.01 97.959v29.684m0-29.684h29.685m-29.685 29.684v29.684m0-29.684h29.685m-29.685 29.684v29.684m0-29.684h29.685m-29.685 29.684v29.685m0-29.685h29.685m-29.685 29.685v29.684m0-29.684h29.685M187.01 246.38v29.684m0-29.684h29.685m-29.685 29.684v29.684m0-29.684h29.685m-29.685 29.684v29.685m0-29.685h29.685m-29.685 29.685v29.684m0-29.684h29.685m-29.685 29.684v29.684m0-29.684h29.685m-29.685 29.684v29.684m0-29.684h29.685m-29.685 29.684v29.684m0-29.684h29.685m-29.685 29.684v29.685m0-29.685h29.685m-29.685 29.685v29.684m0-29.684h29.685m-29.685 29.684v29.684m0-29.684h29.685m-29.685 29.684v29.684m0-29.684h29.685m-29.685 29.684v29.684m0-29.684h29.685M187.01 602.59h29.685m0-593.684V38.59m0-29.684h29.684M216.695 38.59v29.685m0-29.685h29.684m-29.684 29.685v29.684m0-29.684h29.684m-29.684 29.684v29.684m0-29.684h29.684m-29.684 29.684v29.684m0-29.684h29.684m-29.684 29.684v29.684m0-29.684h29.684m-29.684 29.684v29.685m0-29.685h29.684m-29.684 29.685v29.684m0-29.684h29.684m-29.684 29.684v29.684m0-29.684h29.684m-29.684 29.684v29.684m0-29.684h29.684m-29.684 29.684v29.685m0-29.685h29.684m-29.684 29.685v29.684m0-29.684h29.684m-29.684 29.684v29.684m0-29.684h29.684m-29.684 29.684v29.684m0-29.684h29.684m-29.684 29.684v29.684m0-29.684h29.684m-29.684 29.684v29.685m0-29.685h29.684m-29.684 29.685v29.684m0-29.684h29.684m-29.684 29.684v29.684m0-29.684h29.684m-29.684 29.684v29.684m0-29.684h29.684m-29.684 29.684v29.684m0-29.684h29.684m-29.684 29.684h29.684m0-593.684V38.59m0-29.684h29.684M246.379 38.59v29.685m0-29.685h29.684m-29.684 29.685v29.684m0-29.684h29.684m-29.684 29.684v29.684m0-29.684h29.684m-29.684 29.684v29.684m0-29.684h29.684m-29.684 29.684v29.684m0-29.684h29.684m-29.684 29.684v29.685m0-29.685h29.684m-29.684 29.685v29.684m0-29.684h29.684m-29.684 29.684v29.684m0-29.684h29.684m-29.684 29.684v29.684m0-29.684h29.684m-29.684 29.684v29.685m0-29.685h29.684m-29.684 29.685v29.684m0-29.684h29.684m-29.684 29.684v29.684m0-29.684h29.684m-29.684 29.684v29.684m0-29.684h29.684m-29.684 29.684v29.684m0-29.684h29.684m-29.684 29.684v29.685m0-29.685h29.684m-29.684 29.685v29.684m0-29.684h29.684m-29.684 29.684v29.684m0-29.684h29.684m-29.684 29.684v29.684m0-29.684h29.684m-29.684 29.684v29.684m0-29.684h29.684m-29.684 29.684h29.684m0-593.684V38.59m0-29.684h29.684M276.063 38.59v29.685m0-29.685h29.684m-29.684 29.685v29.684m0-29.684h29.684m-29.684 29.684v29.684m0-29.684h29.684m-29.684 29.684v29.684m0-29.684h29.684m-29.684 29.684v29.684m0-29.684h29.684m-29.684 29.684v29.685m0-29.685h29.684m-29.684 29.685v29.684m0-29.684h29.684m-29.684 29.684v29.684m0-29.684h29.684m-29.684 29.684v29.684m0-29.684h29.684m-29.684 29.684v29.685m0-29.685h29.684m-29.684 29.685v29.684m0-29.684h29.684m-29.684 29.684v29.684m0-29.684h29.684m-29.684 29.684v29.684m0-29.684h29.684m-29.684 29.684v29.684m0-29.684h29.684m-29.684 29.684v29.685m0-29.685h29.684m-29.684 29.685v29.684m0-29.684h29.684m-29.684 29.684v29.684m0-29.684h29.684m-29.684 29.684v29.684m0-29.684h29.684m-29.684 29.684v29.684m0-29.684h29.684m-29.684 29.684h29.684m0-593.684V38.59m0-29.684h29.684M305.747 38.59v29.685m0-29.685h29.684m-29.684 29.685v29.684m0-29.684h29.684m-29.684 29.684v29.684m0-29.684h29.684m-29.684 29.684v29.684m0-29.684h29.684m-29.684 29.684v29.684m0-29.684h29.684m-29.684 29.684v29.685m0-29.685h29.684m-29.684 29.685v29.684m0-29.684h29.684m-29.684 29.684v29.684m0-29.684h29.684m-29.684 29.684v29.684m0-29.684h29.684m-29.684 29.684v29.685m0-29.685h29.684m-29.684 29.685v29.684m0-29.684h29.684m-29.684 29.684v29.684m0-29.684h29.684m-29.684 29.684v29.684m0-29.684h29.684m-29.684 29.684v29.684m0-29.684h29.684m-29.684 29.684v29.685m0-29.685h29.684m-29.684 29.685v29.684m0-29.684h29.684m-29.684 29.684v29.684m0-29.684h29.684m-29.684 29.684v29.684m0-29.684h29.684m-29.684 29.684v29.684m0-29.684h29.684m-29.684 29.684h29.684m0-593.684V38.59m0-29.684h29.685M335.431 38.59v29.685m0-29.685h29.685m-29.685 29.685v29.684m0-29.684h29.685m-29.685 29.684v29.684m0-29.684h29.685m-29.685 29.684v29.684m0-29.684h29.685m-29.685 29.684v29.684m0-29.684h29.685m-29.685 29.684v29.685m0-29.685h29.685m-29.685 29.685v29.684m0-29.684h29.685m-29.685 29.684v29.684m0-29.684h29.685m-29.685 29.684v29.684m0-29.684h29.685m-29.685 29.684v29.685m0-29.685h29.685m-29.685 29.685v29.684m0-29.684h29.685m-29.685 29.684v29.684m0-29.684h29.685m-29.685 29.684v29.684m0-29.684h29.685m-29.685 29.684v29.684m0-29.684h29.685m-29.685 29.684v29.685m0-29.685h29.685m-29.685 29.685v29.684m0-29.684h29.685m-29.685 29.684v29.684m0-29.684h29.685m-29.685 29.684v29.684m0-29.684h29.685m-29.685 29.684v29.684m0-29.684h29.685m-29.685 29.684h29.685m0-593.684V38.59m0-29.684H394.8M365.116 38.59v29.685m0-29.685H394.8m-29.684 29.685v29.684m0-29.684H394.8m-29.684 29.684v29.684m0-29.684H394.8m-29.684 29.684v29.684m0-29.684H394.8m-29.684 29.684v29.684m0-29.684H394.8m-29.684 29.684v29.685m0-29.685H394.8m-29.684 29.685v29.684m0-29.684H394.8m-29.684 29.684v29.684m0-29.684H394.8m-29.684 29.684v29.684m0-29.684H394.8m-29.684 29.684v29.685m0-29.685H394.8m-29.684 29.685v29.684m0-29.684H394.8m-29.684 29.684v29.684m0-29.684H394.8m-29.684 29.684v29.684m0-29.684H394.8m-29.684 29.684v29.684m0-29.684H394.8m-29.684 29.684v29.685m0-29.685H394.8m-29.684 29.685v29.684m0-29.684H394.8m-29.684 29.684v29.684m0-29.684H394.8m-29.684 29.684v29.684m0-29.684H394.8m-29.684 29.684v29.684m0-29.684H394.8m-29.684 29.684H394.8m0-593.684V38.59m0-29.684h29.684M394.8 38.59v29.685m0-29.685h29.684M394.8 68.275v29.684m0-29.684h29.684M394.8 97.959v29.684m0-29.684h29.684M394.8 127.643v29.684m0-29.684h29.684M394.8 157.327v29.684m0-29.684h29.684M394.8 187.011v29.685m0-29.685h29.684M394.8 216.696v29.684m0-29.684h29.684M394.8 246.38v29.684m0-29.684h29.684M394.8 276.064v29.684m0-29.684h29.684M394.8 305.748v29.685m0-29.685h29.684M394.8 335.433v29.684m0-29.684h29.684M394.8 365.117v29.684m0-29.684h29.684M394.8 394.801v29.684m0-29.684h29.684M394.8 424.485v29.684m0-29.684h29.684M394.8 454.169v29.685m0-29.685h29.684M394.8 483.854v29.684m0-29.684h29.684M394.8 513.538v29.684m0-29.684h29.684M394.8 543.222v29.684m0-29.684h29.684M394.8 572.906v29.684m0-29.684h29.684M394.8 602.59h29.684m0-593.684V38.59m0-29.684h29.684M424.484 38.59v29.685m0-29.685h29.684m-29.684 29.685v29.684m0-29.684h29.684m-29.684 29.684v29.684m0-29.684h29.684m-29.684 29.684v29.684m0-29.684h29.684m-29.684 29.684v29.684m0-29.684h29.684m-29.684 29.684v29.685m0-29.685h29.684m-29.684 29.685v29.684m0-29.684h29.684m-29.684 29.684v29.684m0-29.684h29.684m-29.684 29.684v29.684m0-29.684h29.684m-29.684 29.684v29.685m0-29.685h29.684m-29.684 29.685v29.684m0-29.684h29.684m-29.684 29.684v29.684m0-29.684h29.684m-29.684 29.684v29.684m0-29.684h29.684m-29.684 29.684v29.684m0-29.684h29.684m-29.684 29.684v29.685m0-29.685h29.684m-29.684 29.685v29.684m0-29.684h29.684m-29.684 29.684v29.684m0-29.684h29.684m-29.684 29.684v29.684m0-29.684h29.684m-29.684 29.684v29.684m0-29.684h29.684m-29.684 29.684h29.684m0-593.684V38.59m0-29.684h29.685M454.168 38.59v29.685m0-29.685h29.685m-29.685 29.685v29.684m0-29.684h29.685m-29.685 29.684v29.684m0-29.684h29.685m-29.685 29.684v29.684m0-29.684h29.685m-29.685 29.684v29.684m0-29.684h29.685m-29.685 29.684v29.685m0-29.685h29.685m-29.685 29.685v29.684m0-29.684h29.685m-29.685 29.684v29.684m0-29.684h29.685m-29.685 29.684v29.684m0-29.684h29.685m-29.685 29.684v29.685m0-29.685h29.685m-29.685 29.685v29.684m0-29.684h29.685m-29.685 29.684v29.684m0-29.684h29.685m-29.685 29.684v29.684m0-29.684h29.685m-29.685 29.684v29.684m0-29.684h29.685m-29.685 29.684v29.685m0-29.685h29.685m-29.685 29.685v29.684m0-29.684h29.685m-29.685 29.684v29.684m0-29.684h29.685m-29.685 29.684v29.684m0-29.684h29.685m-29.685 29.684v29.684m0-29.684h29.685m-29.685 29.684h29.685m0-593.684V38.59m0-29.684h29.684M483.853 38.59v29.685m0-29.685h29.684m-29.684 29.685v29.684m0-29.684h29.684m-29.684 29.684v29.684m0-29.684h29.684m-29.684 29.684v29.684m0-29.684h29.684m-29.684 29.684v29.684m0-29.684h29.684m-29.684 29.684v29.685m0-29.685h29.684m-29.684 29.685v29.684m0-29.684h29.684m-29.684 29.684v29.684m0-29.684h29.684m-29.684 29.684v29.684m0-29.684h29.684m-29.684 29.684v29.685m0-29.685h29.684m-29.684 29.685v29.684m0-29.684h29.684m-29.684 29.684v29.684m0-29.684h29.684m-29.684 29.684v29.684m0-29.684h29.684m-29.684 29.684v29.684m0-29.684h29.684m-29.684 29.684v29.685m0-29.685h29.684m-29.684 29.685v29.684m0-29.684h29.684m-29.684 29.684v29.684m0-29.684h29.684m-29.684 29.684v29.684m0-29.684h29.684m-29.684 29.684v29.684m0-29.684h29.684m-29.684 29.684h29.684m0-593.684V38.59m0-29.684h29.684M513.537 38.59v29.685m0-29.685h29.684m-29.684 29.685v29.684m0-29.684h29.684m-29.684 29.684v29.684m0-29.684h29.684m-29.684 29.684v29.684m0-29.684h29.684m-29.684 29.684v29.684m0-29.684h29.684m-29.684 29.684v29.685m0-29.685h29.684m-29.684 29.685v29.684m0-29.684h29.684m-29.684 29.684v29.684m0-29.684h29.684m-29.684 29.684v29.684m0-29.684h29.684m-29.684 29.684v29.685m0-29.685h29.684m-29.684 29.685v29.684m0-29.684h29.684m-29.684 29.684v29.684m0-29.684h29.684m-29.684 29.684v29.684m0-29.684h29.684m-29.684 29.684v29.684m0-29.684h29.684m-29.684 29.684v29.685m0-29.685h29.684m-29.684 29.685v29.684m0-29.684h29.684m-29.684 29.684v29.684m0-29.684h29.684m-29.684 29.684v29.684m0-29.684h29.684m-29.684 29.684v29.684m0-29.684h29.684m-29.684 29.684h29.684m0-593.684V38.59m0-29.684h29.684M543.221 38.59v29.685m0-29.685h29.684m-29.684 29.685v29.684m0-29.684h29.684m-29.684 29.684v29.684m0-29.684h29.684m-29.684 29.684v29.684m0-29.684h29.684m-29.684 29.684v29.684m0-29.684h29.684m-29.684 29.684v29.685m0-29.685h29.684m-29.684 29.685v29.684m0-29.684h29.684m-29.684 29.684v29.684m0-29.684h29.684m-29.684 29.684v29.684m0-29.684h29.684m-29.684 29.684v29.685m0-29.685h29.684m-29.684 29.685v29.684m0-29.684h29.684m-29.684 29.684v29.684m0-29.684h29.684m-29.684 29.684v29.684m0-29.684h29.684m-29.684 29.684v29.684m0-29.684h29.684m-29.684 29.684v29.685m0-29.685h29.684m-29.684 29.685v29.684m0-29.684h29.684m-29.684 29.684v29.684m0-29.684h29.684m-29.684 29.684v29.684m0-29.684h29.684m-29.684 29.684v29.684m0-29.684h29.684m-29.684 29.684h29.684m0-593.684V38.59m0-29.684h29.684M572.905 38.59v29.685m0-29.685h29.684m-29.684 29.685v29.684m0-29.684h29.684m-29.684 29.684v29.684m0-29.684h29.684m-29.684 29.684v29.684m0-29.684h29.684m-29.684 29.684v29.684m0-29.684h29.684m-29.684 29.684v29.685m0-29.685h29.684m-29.684 29.685v29.684m0-29.684h29.684m-29.684 29.684v29.684m0-29.684h29.684m-29.684 29.684v29.684m0-29.684h29.684m-29.684 29.684v29.685m0-29.685h29.684m-29.684 29.685v29.684m0-29.684h29.684m-29.684 29.684v29.684m0-29.684h29.684m-29.684 29.684v29.684m0-29.684h29.684m-29.684 29.684v29.684m0-29.684h29.684m-29.684 29.684v29.685m0-29.685h29.684m-29.684 29.685v29.684m0-29.684h29.684m-29.684 29.684v29.684m0-29.684h29.684m-29.684 29.684v29.684m0-29.684h29.684m-29.684 29.684v29.684m0-29.684h29.684m-29.684 29.684h29.684m0-593.684V38.59m0-29.684h29.685M602.589 38.59v29.685m0-29.685h29.685m-29.685 29.685v29.684m0-29.684h29.685m-29.685 29.684v29.684m0-29.684h29.685m-29.685 29.684v29.684m0-29.684h29.685m-29.685 29.684v29.684m0-29.684h29.685m-29.685 29.684v29.685m0-29.685h29.685m-29.685 29.685v29.684m0-29.684h29.685m-29.685 29.684v29.684m0-29.684h29.685m-29.685 29.684v29.684m0-29.684h29.685m-29.685 29.684v29.685m0-29.685h29.685m-29.685 29.685v29.684m0-29.684h29.685m-29.685 29.684v29.684m0-29.684h29.685m-29.685 29.684v29.684m0-29.684h29.685m-29.685 29.684v29.684m0-29.684h29.685m-29.685 29.684v29.685m0-29.685h29.685m-29.685 29.685v29.684m0-29.684h29.685m-29.685 29.684v29.684m0-29.684h29.685m-29.685 29.684v29.684m0-29.684h29.685m-29.685 29.684v29.684m0-29.684h29.685m-29.685 29.684h29.685m0-593.684V38.59m0-29.684h29.684M632.274 38.59v29.685m0-29.685h29.684m-29.684 29.685v29.684m0-29.684h29.684m-29.684 29.684v29.684m0-29.684h29.684m-29.684 29.684v29.684m0-29.684h29.684m-29.684 29.684v29.684m0-29.684h29.684m-29.684 29.684v29.685m0-29.685h29.684m-29.684 29.685v29.684m0-29.684h29.684m-29.684 29.684v29.684m0-29.684h29.684m-29.684 29.684v29.684m0-29.684h29.684m-29.684 29.684v29.685m0-29.685h29.684m-29.684 29.685v29.684m0-29.684h29.684m-29.684 29.684v29.684m0-29.684h29.684m-29.684 29.684v29.684m0-29.684h29.684m-29.684 29.684v29.684m0-29.684h29.684m-29.684 29.684v29.685m0-29.685h29.684m-29.684 29.685v29.684m0-29.684h29.684m-29.684 29.684v29.684m0-29.684h29.684m-29.684 29.684v29.684m0-29.684h29.684m-29.684 29.684v29.684m0-29.684h29.684m-29.684 29.684h29.684m0-593.684V38.59m0-29.684h29.684M661.958 38.59v29.685m0-29.685h29.684m-29.684 29.685v29.684m0-29.684h29.684m-29.684 29.684v29.684m0-29.684h29.684m-29.684 29.684v29.684m0-29.684h29.684m-29.684 29.684v29.684m0-29.684h29.684m-29.684 29.684v29.685m0-29.685h29.684m-29.684 29.685v29.684m0-29.684h29.684m-29.684 29.684v29.684m0-29.684h29.684m-29.684 29.684v29.684m0-29.684h29.684m-29.684 29.684v29.685m0-29.685h29.684m-29.684 29.685v29.684m0-29.684h29.684m-29.684 29.684v29.684m0-29.684h29.684m-29.684 29.684v29.684m0-29.684h29.684m-29.684 29.684v29.684m0-29.684h29.684m-29.684 29.684v29.685m0-29.685h29.684m-29.684 29.685v29.684m0-29.684h29.684m-29.684 29.684v29.684m0-29.684h29.684m-29.684 29.684v29.684m0-29.684h29.684m-29.684 29.684v29.684m0-29.684h29.684m-29.684 29.684h29.684m0-593.684V38.59m0-29.684h29.684M691.642 38.59v29.685m0-29.685h29.684m-29.684 29.685v29.684m0-29.684h29.684m-29.684 29.684v29.684m0-29.684h29.684m-29.684 29.684v29.684m0-29.684h29.684m-29.684 29.684v29.684m0-29.684h29.684m-29.684 29.684v29.685m0-29.685h29.684m-29.684 29.685v29.684m0-29.684h29.684m-29.684 29.684v29.684m0-29.684h29.684m-29.684 29.684v29.684m0-29.684h29.684m-29.684 29.684v29.685m0-29.685h29.684m-29.684 29.685v29.684m0-29.684h29.684m-29.684 29.684v29.684m0-29.684h29.684m-29.684 29.684v29.684m0-29.684h29.684m-29.684 29.684v29.684m0-29.684h29.684m-29.684 29.684v29.685m0-29.685h29.684m-29.684 29.685v29.684m0-29.684h29.684m-29.684 29.684v29.684m0-29.684h29.684m-29.684 29.684v29.684m0-29.684h29.684m-29.684 29.684v29.684m0-29.684h29.684m-29.684 29.684h29.684m0-593.684V38.59m0-29.684h29.684M721.326 38.59v29.685m0-29.685h29.684m-29.684 29.685v29.684m0-29.684h29.684m-29.684 29.684v29.684m0-29.684h29.684m-29.684 29.684v29.684m0-29.684h29.684m-29.684 29.684v29.684m0-29.684h29.684m-29.684 29.684v29.685m0-29.685h29.684m-29.684 29.685v29.684m0-29.684h29.684m-29.684 29.684v29.684m0-29.684h29.684m-29.684 29.684v29.684m0-29.684h29.684m-29.684 29.684v29.685m0-29.685h29.684m-29.684 29.685v29.684m0-29.684h29.684m-29.684 29.684v29.684m0-29.684h29.684m-29.684 29.684v29.684m0-29.684h29.684m-29.684 29.684v29.684m0-29.684h29.684m-29.684 29.684v29.685m0-29.685h29.684m-29.684 29.685v29.684m0-29.684h29.684m-29.684 29.684v29.684m0-29.684h29.684m-29.684 29.684v29.684m0-29.684h29.684m-29.684 29.684v29.684m0-29.684h29.684m-29.684 29.684h29.684m0-593.684V38.59m0-29.684h29.685M751.01 38.59v29.685m0-29.685h29.685M751.01 68.275v29.684m0-29.684h29.685M751.01 97.959v29.684m0-29.684h29.685m-29.685 29.684v29.684m0-29.684h29.685m-29.685 29.684v29.684m0-29.684h29.685m-29.685 29.684v29.685m0-29.685h29.685m-29.685 29.685v29.684m0-29.684h29.685M751.01 246.38v29.684m0-29.684h29.685m-29.685 29.684v29.684m0-29.684h29.685m-29.685 29.684v29.685m0-29.685h29.685m-29.685 29.685v29.684m0-29.684h29.685m-29.685 29.684v29.684m0-29.684h29.685m-29.685 29.684v29.684m0-29.684h29.685m-29.685 29.684v29.684m0-29.684h29.685m-29.685 29.684v29.685m0-29.685h29.685m-29.685 29.685v29.684m0-29.684h29.685m-29.685 29.684v29.684m0-29.684h29.685m-29.685 29.684v29.684m0-29.684h29.685m-29.685 29.684v29.684m0-29.684h29.685M751.01 602.59h29.685m0-593.684V38.59m0-29.684h29.684M780.695 38.59v29.685m0-29.685h29.684m-29.684 29.685v29.684m0-29.684h29.684m-29.684 29.684v29.684m0-29.684h29.684m-29.684 29.684v29.684m0-29.684h29.684m-29.684 29.684v29.684m0-29.684h29.684m-29.684 29.684v29.685m0-29.685h29.684m-29.684 29.685v29.684m0-29.684h29.684m-29.684 29.684v29.684m0-29.684h29.684m-29.684 29.684v29.684m0-29.684h29.684m-29.684 29.684v29.685m0-29.685h29.684m-29.684 29.685v29.684m0-29.684h29.684m-29.684 29.684v29.684m0-29.684h29.684m-29.684 29.684v29.684m0-29.684h29.684m-29.684 29.684v29.684m0-29.684h29.684m-29.684 29.684v29.685m0-29.685h29.684m-29.684 29.685v29.684m0-29.684h29.684m-29.684 29.684v29.684m0-29.684h29.684m-29.684 29.684v29.684m0-29.684h29.684m-29.684 29.684v29.684m0-29.684h29.684m-29.684 29.684h29.684m0-593.684V38.59m0-29.684h29.684M810.379 38.59v29.685m0-29.685h29.684m-29.684 29.685v29.684m0-29.684h29.684m-29.684 29.684v29.684m0-29.684h29.684m-29.684 29.684v29.684m0-29.684h29.684m-29.684 29.684v29.684m0-29.684h29.684m-29.684 29.684v29.685m0-29.685h29.684m-29.684 29.685v29.684m0-29.684h29.684m-29.684 29.684v29.684m0-29.684h29.684m-29.684 29.684v29.684m0-29.684h29.684m-29.684 29.684v29.685m0-29.685h29.684m-29.684 29.685v29.684m0-29.684h29.684m-29.684 29.684v29.684m0-29.684h29.684m-29.684 29.684v29.684m0-29.684h29.684m-29.684 29.684v29.684m0-29.684h29.684m-29.684 29.684v29.685m0-29.685h29.684m-29.684 29.685v29.684m0-29.684h29.684m-29.684 29.684v29.684m0-29.684h29.684m-29.684 29.684v29.684m0-29.684h29.684m-29.684 29.684v29.684m0-29.684h29.684m-29.684 29.684h29.684m0-593.684V38.59m0-29.684h29.684M840.063 38.59v29.685m0-29.685h29.684m-29.684 29.685v29.684m0-29.684h29.684m-29.684 29.684v29.684m0-29.684h29.684m-29.684 29.684v29.684m0-29.684h29.684m-29.684 29.684v29.684m0-29.684h29.684m-29.684 29.684v29.685m0-29.685h29.684m-29.684 29.685v29.684m0-29.684h29.684m-29.684 29.684v29.684m0-29.684h29.684m-29.684 29.684v29.684m0-29.684h29.684m-29.684 29.684v29.685m0-29.685h29.684m-29.684 29.685v29.684m0-29.684h29.684m-29.684 29.684v29.684m0-29.684h29.684m-29.684 29.684v29.684m0-29.684h29.684m-29.684 29.684v29.684m0-29.684h29.684m-29.684 29.684v29.685m0-29.685h29.684m-29.684 29.685v29.684m0-29.684h29.684m-29.684 29.684v29.684m0-29.684h29.684m-29.684 29.684v29.684m0-29.684h29.684m-29.684 29.684v29.684m0-29.684h29.684m-29.684 29.684h29.684m0-593.684V38.59m0-29.684h29.684M869.747 38.59v29.685m0-29.685h29.684m-29.684 29.685v29.684m0-29.684h29.684m-29.684 29.684v29.684m0-29.684h29.684m-29.684 29.684v29.684m0-29.684h29.684m-29.684 29.684v29.684m0-29.684h29.684m-29.684 29.684v29.685m0-29.685h29.684m-29.684 29.685v29.684m0-29.684h29.684m-29.684 29.684v29.684m0-29.684h29.684m-29.684 29.684v29.684m0-29.684h29.684m-29.684 29.684v29.685m0-29.685h29.684m-29.684 29.685v29.684m0-29.684h29.684m-29.684 29.684v29.684m0-29.684h29.684m-29.684 29.684v29.684m0-29.684h29.684m-29.684 29.684v29.684m0-29.684h29.684m-29.684 29.684v29.685m0-29.685h29.684m-29.684 29.685v29.684m0-29.684h29.684m-29.684 29.684v29.684m0-29.684h29.684m-29.684 29.684v29.684m0-29.684h29.684m-29.684 29.684v29.684m0-29.684h29.684m-29.684 29.684h29.684m0-593.684V38.59m0-29.684h29.685M899.431 38.59v29.685m0-29.685h29.685m-29.685 29.685v29.684m0-29.684h29.685m-29.685 29.684v29.684m0-29.684h29.685m-29.685 29.684v29.684m0-29.684h29.685m-29.685 29.684v29.684m0-29.684h29.685m-29.685 29.684v29.685m0-29.685h29.685m-29.685 29.685v29.684m0-29.684h29.685m-29.685 29.684v29.684m0-29.684h29.685m-29.685 29.684v29.684m0-29.684h29.685m-29.685 29.684v29.685m0-29.685h29.685m-29.685 29.685v29.684m0-29.684h29.685m-29.685 29.684v29.684m0-29.684h29.685m-29.685 29.684v29.684m0-29.684h29.685m-29.685 29.684v29.684m0-29.684h29.685m-29.685 29.684v29.685m0-29.685h29.685m-29.685 29.685v29.684m0-29.684h29.685m-29.685 29.684v29.684m0-29.684h29.685m-29.685 29.684v29.684m0-29.684h29.685m-29.685 29.684v29.684m0-29.684h29.685m-29.685 29.684h29.685m0-593.684V38.59m0-29.684H958.8M929.116 38.59v29.685m0-29.685H958.8m-29.684 29.685v29.684m0-29.684H958.8m-29.684 29.684v29.684m0-29.684H958.8m-29.684 29.684v29.684m0-29.684H958.8m-29.684 29.684v29.684m0-29.684H958.8m-29.684 29.684v29.685m0-29.685H958.8m-29.684 29.685v29.684m0-29.684H958.8m-29.684 29.684v29.684m0-29.684H958.8m-29.684 29.684v29.684m0-29.684H958.8m-29.684 29.684v29.685m0-29.685H958.8m-29.684 29.685v29.684m0-29.684H958.8m-29.684 29.684v29.684m0-29.684H958.8m-29.684 29.684v29.684m0-29.684H958.8m-29.684 29.684v29.684m0-29.684H958.8m-29.684 29.684v29.685m0-29.685H958.8m-29.684 29.685v29.684m0-29.684H958.8m-29.684 29.684v29.684m0-29.684H958.8m-29.684 29.684v29.684m0-29.684H958.8m-29.684 29.684v29.684m0-29.684H958.8m-29.684 29.684H958.8m0-593.684V38.59m0-29.684h29.684M958.8 38.59v29.685m0-29.685h29.684M958.8 68.275v29.684m0-29.684h29.684M958.8 97.959v29.684m0-29.684h29.684M958.8 127.643v29.684m0-29.684h29.684M958.8 157.327v29.684m0-29.684h29.684M958.8 187.011v29.685m0-29.685h29.684M958.8 216.696v29.684m0-29.684h29.684M958.8 246.38v29.684m0-29.684h29.684M958.8 276.064v29.684m0-29.684h29.684M958.8 305.748v29.685m0-29.685h29.684M958.8 335.433v29.684m0-29.684h29.684M958.8 365.117v29.684m0-29.684h29.684M958.8 394.801v29.684m0-29.684h29.684M958.8 424.485v29.684m0-29.684h29.684M958.8 454.169v29.685m0-29.685h29.684M958.8 483.854v29.684m0-29.684h29.684M958.8 513.538v29.684m0-29.684h29.684M958.8 543.222v29.684m0-29.684h29.684M958.8 572.906v29.684m0-29.684h29.684M958.8 602.59h29.684m0-593.684V38.59m0-29.684h29.686M988.484 38.59v29.685m0-29.685h29.686m-29.686 29.685v29.684m0-29.684h29.686m-29.686 29.684v29.684m0-29.684h29.686m-29.686 29.684v29.684m0-29.684h29.686m-29.686 29.684v29.684m0-29.684h29.686m-29.686 29.684v29.685m0-29.685h29.686m-29.686 29.685v29.684m0-29.684h29.686m-29.686 29.684v29.684m0-29.684h29.686m-29.686 29.684v29.684m0-29.684h29.686m-29.686 29.684v29.685m0-29.685h29.686m-29.686 29.685v29.684m0-29.684h29.686m-29.686 29.684v29.684m0-29.684h29.686m-29.686 29.684v29.684m0-29.684h29.686m-29.686 29.684v29.684m0-29.684h29.686m-29.686 29.684v29.685m0-29.685h29.686m-29.686 29.685v29.684m0-29.684h29.686m-29.686 29.684v29.684m0-29.684h29.686m-29.686 29.684v29.684m0-29.684h29.686m-29.686 29.684v29.684m0-29.684h29.686m-29.686 29.684h29.686m0-593.684V38.59m0-29.684h29.68m-29.68 29.684v29.685m0-29.685h29.68m-29.68 29.685v29.684m0-29.684h29.68m-29.68 29.684v29.684m0-29.684h29.68m-29.68 29.684v29.684m0-29.684h29.68m-29.68 29.684v29.684m0-29.684h29.68m-29.68 29.684v29.685m0-29.685h29.68m-29.68 29.685v29.684m0-29.684h29.68m-29.68 29.684v29.684m0-29.684h29.68m-29.68 29.684v29.684m0-29.684h29.68m-29.68 29.684v29.685m0-29.685h29.68m-29.68 29.685v29.684m0-29.684h29.68m-29.68 29.684v29.684m0-29.684h29.68m-29.68 29.684v29.684m0-29.684h29.68m-29.68 29.684v29.684m0-29.684h29.68m-29.68 29.684v29.685m0-29.685h29.68m-29.68 29.685v29.684m0-29.684h29.68m-29.68 29.684v29.684m0-29.684h29.68m-29.68 29.684v29.684m0-29.684h29.68m-29.68 29.684v29.684m0-29.684h29.68m-29.68 29.684h29.68m0-593.684V38.59m0-29.684h29.69m-29.69 29.684v29.685m0-29.685h29.69m-29.69 29.685v29.684m0-29.684h29.69m-29.69 29.684v29.684m0-29.684h29.69m-29.69 29.684v29.684m0-29.684h29.69m-29.69 29.684v29.684m0-29.684h29.69m-29.69 29.684v29.685m0-29.685h29.69m-29.69 29.685v29.684m0-29.684h29.69m-29.69 29.684v29.684m0-29.684h29.69m-29.69 29.684v29.684m0-29.684h29.69m-29.69 29.684v29.685m0-29.685h29.69m-29.69 29.685v29.684m0-29.684h29.69m-29.69 29.684v29.684m0-29.684h29.69m-29.69 29.684v29.684m0-29.684h29.69m-29.69 29.684v29.684m0-29.684h29.69m-29.69 29.684v29.685m0-29.685h29.69m-29.69 29.685v29.684m0-29.684h29.69m-29.69 29.684v29.684m0-29.684h29.69m-29.69 29.684v29.684m0-29.684h29.69m-29.69 29.684v29.684m0-29.684h29.69m-29.69 29.684h29.69m0-593.684V38.59m0-29.684h29.68m-29.68 29.684v29.685m0-29.685h29.68m-29.68 29.685v29.684m0-29.684h29.68m-29.68 29.684v29.684m0-29.684h29.68m-29.68 29.684v29.684m0-29.684h29.68m-29.68 29.684v29.684m0-29.684h29.68m-29.68 29.684v29.685m0-29.685h29.68m-29.68 29.685v29.684m0-29.684h29.68m-29.68 29.684v29.684m0-29.684h29.68m-29.68 29.684v29.684m0-29.684h29.68m-29.68 29.684v29.685m0-29.685h29.68m-29.68 29.685v29.684m0-29.684h29.68m-29.68 29.684v29.684m0-29.684h29.68m-29.68 29.684v29.684m0-29.684h29.68m-29.68 29.684v29.684m0-29.684h29.68m-29.68 29.684v29.685m0-29.685h29.68m-29.68 29.685v29.684m0-29.684h29.68m-29.68 29.684v29.684m0-29.684h29.68m-29.68 29.684v29.684m0-29.684h29.68m-29.68 29.684v29.684m0-29.684h29.68m-29.68 29.684h29.68m0-593.684V38.59m0-29.684h29.69m-29.69 29.684v29.685m0-29.685h29.69m-29.69 29.685v29.684m0-29.684h29.69m-29.69 29.684v29.684m0-29.684h29.69m-29.69 29.684v29.684m0-29.684h29.69m-29.69 29.684v29.684m0-29.684h29.69m-29.69 29.684v29.685m0-29.685h29.69m-29.69 29.685v29.684m0-29.684h29.69m-29.69 29.684v29.684m0-29.684h29.69m-29.69 29.684v29.684m0-29.684h29.69m-29.69 29.684v29.685m0-29.685h29.69m-29.69 29.685v29.684m0-29.684h29.69m-29.69 29.684v29.684m0-29.684h29.69m-29.69 29.684v29.684m0-29.684h29.69m-29.69 29.684v29.684m0-29.684h29.69m-29.69 29.684v29.685m0-29.685h29.69m-29.69 29.685v29.684m0-29.684h29.69m-29.69 29.684v29.684m0-29.684h29.69m-29.69 29.684v29.684m0-29.684h29.69m-29.69 29.684v29.684m0-29.684h29.69m-29.69 29.684h29.69m0-593.684V38.59m0-29.684h29.68m-29.68 29.684v29.685m0-29.685h29.68m-29.68 29.685v29.684m0-29.684h29.68m-29.68 29.684v29.684m0-29.684h29.68m-29.68 29.684v29.684m0-29.684h29.68m-29.68 29.684v29.684m0-29.684h29.68m-29.68 29.684v29.685m0-29.685h29.68m-29.68 29.685v29.684m0-29.684h29.68m-29.68 29.684v29.684m0-29.684h29.68m-29.68 29.684v29.684m0-29.684h29.68m-29.68 29.684v29.685m0-29.685h29.68m-29.68 29.685v29.684m0-29.684h29.68m-29.68 29.684v29.684m0-29.684h29.68m-29.68 29.684v29.684m0-29.684h29.68m-29.68 29.684v29.684m0-29.684h29.68m-29.68 29.684v29.685m0-29.685h29.68m-29.68 29.685v29.684m0-29.684h29.68m-29.68 29.684v29.684m0-29.684h29.68m-29.68 29.684v29.684m0-29.684h29.68m-29.68 29.684v29.684m0-29.684h29.68m-29.68 29.684h29.68m0-593.684V38.59m0-29.684h29.68m-29.68 29.684v29.685m0-29.685h29.68m-29.68 29.685v29.684m0-29.684h29.68m-29.68 29.684v29.684m0-29.684h29.68m-29.68 29.684v29.684m0-29.684h29.68m-29.68 29.684v29.684m0-29.684h29.68m-29.68 29.684v29.685m0-29.685h29.68m-29.68 29.685v29.684m0-29.684h29.68m-29.68 29.684v29.684m0-29.684h29.68m-29.68 29.684v29.684m0-29.684h29.68m-29.68 29.684v29.685m0-29.685h29.68m-29.68 29.685v29.684m0-29.684h29.68m-29.68 29.684v29.684m0-29.684h29.68m-29.68 29.684v29.684m0-29.684h29.68m-29.68 29.684v29.684m0-29.684h29.68m-29.68 29.684v29.685m0-29.685h29.68m-29.68 29.685v29.684m0-29.684h29.68m-29.68 29.684v29.684m0-29.684h29.68m-29.68 29.684v29.684m0-29.684h29.68m-29.68 29.684v29.684m0-29.684h29.68m-29.68 29.684h29.68m0-593.684V38.59m0-29.684h29.69m-29.69 29.684v29.685m0-29.685h29.69m-29.69 29.685v29.684m0-29.684h29.69m-29.69 29.684v29.684m0-29.684h29.69m-29.69 29.684v29.684m0-29.684h29.69m-29.69 29.684v29.684m0-29.684h29.69m-29.69 29.684v29.685m0-29.685h29.69m-29.69 29.685v29.684m0-29.684h29.69m-29.69 29.684v29.684m0-29.684h29.69m-29.69 29.684v29.684m0-29.684h29.69m-29.69 29.684v29.685m0-29.685h29.69m-29.69 29.685v29.684m0-29.684h29.69m-29.69 29.684v29.684m0-29.684h29.69m-29.69 29.684v29.684m0-29.684h29.69m-29.69 29.684v29.684m0-29.684h29.69m-29.69 29.684v29.685m0-29.685h29.69m-29.69 29.685v29.684m0-29.684h29.69m-29.69 29.684v29.684m0-29.684h29.69m-29.69 29.684v29.684m0-29.684h29.69m-29.69 29.684v29.684m0-29.684h29.69m-29.69 29.684h29.69m0-593.684V38.59m0-29.684h29.68m-29.68 29.684v29.685m0-29.685h29.68m-29.68 29.685v29.684m0-29.684h29.68m-29.68 29.684v29.684m0-29.684h29.68m-29.68 29.684v29.684m0-29.684h29.68m-29.68 29.684v29.684m0-29.684h29.68m-29.68 29.684v29.685m0-29.685h29.68m-29.68 29.685v29.684m0-29.684h29.68m-29.68 29.684v29.684m0-29.684h29.68m-29.68 29.684v29.684m0-29.684h29.68m-29.68 29.684v29.685m0-29.685h29.68m-29.68 29.685v29.684m0-29.684h29.68m-29.68 29.684v29.684m0-29.684h29.68m-29.68 29.684v29.684m0-29.684h29.68m-29.68 29.684v29.684m0-29.684h29.68m-29.68 29.684v29.685m0-29.685h29.68m-29.68 29.685v29.684m0-29.684h29.68m-29.68 29.684v29.684m0-29.684h29.68m-29.68 29.684v29.684m0-29.684h29.68m-29.68 29.684v29.684m0-29.684h29.68m-29.68 29.684h29.68m0-593.684V38.59m0-29.684h29.69m-29.69 29.684v29.685m0-29.685h29.69m-29.69 29.685v29.684m0-29.684h29.69m-29.69 29.684v29.684m0-29.684h29.69m-29.69 29.684v29.684m0-29.684h29.69m-29.69 29.684v29.684m0-29.684h29.69m-29.69 29.684v29.685m0-29.685h29.69m-29.69 29.685v29.684m0-29.684h29.69m-29.69 29.684v29.684m0-29.684h29.69m-29.69 29.684v29.684m0-29.684h29.69m-29.69 29.684v29.685m0-29.685h29.69m-29.69 29.685v29.684m0-29.684h29.69m-29.69 29.684v29.684m0-29.684h29.69m-29.69 29.684v29.684m0-29.684h29.69m-29.69 29.684v29.684m0-29.684h29.69m-29.69 29.684v29.685m0-29.685h29.69m-29.69 29.685v29.684m0-29.684h29.69m-29.69 29.684v29.684m0-29.684h29.69m-29.69 29.684v29.684m0-29.684h29.69m-29.69 29.684v29.684m0-29.684h29.69m-29.69 29.684h29.69m0-593.684V38.59m0-29.684h29.68V38.59m-29.68 0v29.685m0-29.685h29.68m-29.68 29.685v29.684m0-29.684h29.68m-29.68 29.684v29.684m0-29.684h29.68m-29.68 29.684v29.684m0-29.684h29.68m-29.68 29.684v29.684m0-29.684h29.68m-29.68 29.684v29.685m0-29.685h29.68m-29.68 29.685v29.684m0-29.684h29.68m-29.68 29.684v29.684m0-29.684h29.68m-29.68 29.684v29.684m0-29.684h29.68m-29.68 29.684v29.685m0-29.685h29.68m-29.68 29.685v29.684m0-29.684h29.68m-29.68 29.684v29.684m0-29.684h29.68m-29.68 29.684v29.684m0-29.684h29.68m-29.68 29.684v29.684m0-29.684h29.68m-29.68 29.684v29.685m0-29.685h29.68m-29.68 29.685v29.684m0-29.684h29.68m-29.68 29.684v29.684m0-29.684h29.68m-29.68 29.684v29.684m0-29.684h29.68m-29.68 29.684v29.684m0-29.684h29.68m-29.68 29.684h29.68v-29.684m0-534.315v29.684m0 0v29.684m0 0v29.684m0 0v29.684m0 0v29.684m0 0v29.685m0 0v29.684m0 0v29.684m0 0v29.684m0 0v29.685m0 0v29.684m0 0v29.684m0 0v29.684m0 0v29.684m0 0v29.685m0 0v29.684m0 0v29.684m0 0v29.684" opacity=".7" style="mix-blend-mode:soft-light"/><path stroke="url(#b)" stroke-opacity=".6" stroke-width=".742" d="M127.642 118.737v8.905m0 0v8.905m0-8.905h-8.905m8.905 0h8.905m-8.905 228.568v8.906m0 0v8.905m0-8.905h-8.905m8.905 0h8.905m-8.905 228.568v8.905m0 0v8.906m0-8.906h-8.905m8.905 0h8.905m228.569-483.852v8.905m0 0v8.905m0-8.905h-8.906m8.906 0h8.905m-8.905 228.568v8.906m0 0v8.905m0-8.905h-8.906m8.906 0h8.905m-8.905 228.568v8.905m0 0v8.906m0-8.906h-8.906m8.906 0h8.905m228.568-483.852v8.905m0 0v8.905m0-8.905h-8.905m8.905 0h8.906m-8.906 228.568v8.906m0 0v8.905m0-8.905h-8.905m8.905 0h8.906m-8.906 228.568v8.905m0 0v8.906m0-8.906h-8.905m8.905 0h8.906m228.568-483.852v8.905m0 0v8.905m0-8.905h-8.905m8.905 0h8.905m-8.905 228.568v8.906m0 0v8.905m0-8.905h-8.905m8.905 0h8.905m-8.905 228.568v8.905m0 0v8.906m0-8.906h-8.905m8.905 0h8.905m228.572-483.852v8.905m0 0v8.905m0-8.905h-8.91m8.91 0h8.9m-8.9 228.568v8.906m0 0v8.905m0-8.905h-8.91m8.91 0h8.9m-8.9 228.568v8.905m0 0v8.906m0-8.906h-8.91m8.91 0h8.9m228.57-483.852v8.905m0 0v8.905m0-8.905h-8.9m8.9 0h8.91m-8.91 228.568v8.906m0 0v8.905m0-8.905h-8.9m8.9 0h8.91m-8.91 228.568v8.905m0 0v8.906m0-8.906h-8.9m8.9 0h8.91M127.642 0v8.905m0 0v8.906m0-8.906h-8.905m8.905 0h8.905m-8.905 228.569v8.905m0 0v8.905m0-8.905h-8.905m8.905 0h8.905m-8.905 228.568v8.905m0 0v8.906m0-8.906h-8.905m8.905 0h8.905M365.116 0v8.905m0 0v8.906m0-8.906h-8.906m8.906 0h8.905m-8.905 228.569v8.905m0 0v8.905m0-8.905h-8.906m8.906 0h8.905m-8.905 228.568v8.905m0 0v8.906m0-8.906h-8.906m8.906 0h8.905M602.589 0v8.905m0 0v8.906m0-8.906h-8.905m8.905 0h8.906m-8.906 228.569v8.905m0 0v8.905m0-8.905h-8.905m8.905 0h8.906m-8.906 228.568v8.905m0 0v8.906m0-8.906h-8.905m8.905 0h8.906M840.063 0v8.905m0 0v8.906m0-8.906h-8.905m8.905 0h8.905m-8.905 228.569v8.905m0 0v8.905m0-8.905h-8.905m8.905 0h8.905m-8.905 228.568v8.905m0 0v8.906m0-8.906h-8.905m8.905 0h8.905M1077.54 0v8.905m0 0v8.906m0-8.906h-8.91m8.91 0h8.9m-8.9 228.569v8.905m0 0v8.905m0-8.905h-8.91m8.91 0h8.9m-8.9 228.568v8.905m0 0v8.906m0-8.906h-8.91m8.91 0h8.9M1315.01 0v8.905m0 0v8.906m0-8.906h-8.9m8.9 0h8.91m-8.91 228.569v8.905m0 0v8.905m0-8.905h-8.9m8.9 0h8.91m-8.91 228.568v8.905m0 0v8.906m0-8.906h-8.9m8.9 0h8.91M8.905 118.737v8.905m0 0v8.905m0-8.905H0m8.905 0h8.905M8.905 356.21v8.906m0 0v8.905m0-8.905H0m8.905 0h8.905M8.905 593.684v8.905m0 0v8.906m0-8.906H0m8.905 0h8.905m228.57-483.852v8.905m0 0v8.905m0-8.905h-8.905m8.905 0h8.905M246.38 356.21v8.906m0 0v8.905m0-8.905h-8.905m8.905 0h8.905m-8.905 228.568v8.905m0 0v8.906m0-8.906h-8.905m8.905 0h8.905m228.568-483.852v8.905m0 0v8.905m0-8.905h-8.905m8.905 0h8.906m-8.906 228.568v8.906m0 0v8.905m0-8.905h-8.905m8.905 0h8.906m-8.906 228.568v8.905m0 0v8.906m0-8.906h-8.905m8.905 0h8.906m228.568-483.852v8.905m0 0v8.905m0-8.905h-8.905m8.905 0h8.905m-8.905 228.568v8.906m0 0v8.905m0-8.905h-8.905m8.905 0h8.905m-8.905 228.568v8.905m0 0v8.906m0-8.906h-8.905m8.905 0h8.905M958.8 118.737v8.905m0 0v8.905m0-8.905h-8.905m8.905 0h8.905M958.8 356.21v8.906m0 0v8.905m0-8.905h-8.905m8.905 0h8.905M958.8 593.684v8.905m0 0v8.906m0-8.906h-8.905m8.905 0h8.905m228.565-483.852v8.905m0 0v8.905m0-8.905h-8.9m8.9 0h8.91m-8.91 228.568v8.906m0 0v8.905m0-8.905h-8.9m8.9 0h8.91m-8.91 228.568v8.905m0 0v8.906m0-8.906h-8.9m8.9 0h8.91M8.905 0v8.905m0 0v8.906m0-8.906H0m8.905 0h8.905M8.905 237.474v8.905m0 0v8.905m0-8.905H0m8.905 0h8.905M8.905 474.947v8.905m0 0v8.906m0-8.906H0m8.905 0h8.905M246.38 0v8.905m0 0v8.906m0-8.906h-8.905m8.905 0h8.905m-8.905 228.569v8.905m0 0v8.905m0-8.905h-8.905m8.905 0h8.905m-8.905 228.568v8.905m0 0v8.906m0-8.906h-8.905m8.905 0h8.905M483.852 0v8.905m0 0v8.906m0-8.906h-8.905m8.905 0h8.906m-8.906 228.569v8.905m0 0v8.905m0-8.905h-8.905m8.905 0h8.906m-8.906 228.568v8.905m0 0v8.906m0-8.906h-8.905m8.905 0h8.906M721.326 0v8.905m0 0v8.906m0-8.906h-8.905m8.905 0h8.905m-8.905 228.569v8.905m0 0v8.905m0-8.905h-8.905m8.905 0h8.905m-8.905 228.568v8.905m0 0v8.906m0-8.906h-8.905m8.905 0h8.905M958.8 0v8.905m0 0v8.906m0-8.906h-8.905m8.905 0h8.905M958.8 237.474v8.905m0 0v8.905m0-8.905h-8.905m8.905 0h8.905M958.8 474.947v8.905m0 0v8.906m0-8.906h-8.905m8.905 0h8.905M1196.27 0v8.905m0 0v8.906m0-8.906h-8.9m8.9 0h8.91m-8.91 228.569v8.905m0 0v8.905m0-8.905h-8.9m8.9 0h8.91m-8.91 228.568v8.905m0 0v8.906m0-8.906h-8.9m8.9 0h8.91" opacity=".8" style="mix-blend-mode:soft-light"/><defs><radialGradient id="a" cx="0" cy="0" r="1" gradientTransform="matrix(0 296.842 -653.053 0 661.958 305.748)" gradientUnits="userSpaceOnUse"><stop stop-color="#fff"/><stop offset="1" stop-color="#fff" stop-opacity="0"/></radialGradient><radialGradient id="b" cx="0" cy="0" r="1" gradientTransform="matrix(0 305.747 -661.958 0 661.958 305.747)" gradientUnits="userSpaceOnUse"><stop stop-color="#fff"/><stop offset="1" stop-color="#fff" stop-opacity="0"/></radialGradient></defs></svg>