<svg xmlns="http://www.w3.org/2000/svg" width="392" height="64" fill="none"><path fill="#CAF840" d="M32 0C14.328 0 0 14.328 0 32s14.328 32 32 32 32-14.328 32-32S49.672 0 32 0Z"/><mask id="a" width="45" height="38" x="11" y="14" maskUnits="userSpaceOnUse" style="mask-type:luminance"><path fill="#fff" d="M55.315 14.86H11.422v36.566h43.892V14.86Z"/></mask><g fill="#121212" mask="url(#a)"><path d="M28.413 23.296h-.02c-1.209-.347-2.489.347-2.899 1.494-.452 1.233.266 2.645 1.534 3.035 3.106.882 4.44-3.57 1.385-4.529Z"/><path d="M54.882 29.587c-4-8.756-16.758-5.133-17.936-7.426-3.453-5.418-9.898-8.46-16.866-6.892-1.073-.429-4.768-.546-7.156.956l1.44.636c.109.046.078.035.238.093.651.246.538.176.07.433-1.073.628-2.411 1.357-3.246 2.453.035.051 1.837.484 1.837.484.032.008.367.043.293.191-5.895 9.306 4.046 23.352 8.872 30.91H36.4c-2.158-3.861-4.624-9.13-3.78-12.707.151-.647.346-1.47 1.142-1.58 1.924-.308 4.499-.28 6.332-.487h.028c.39-.02 9.941-1.233 12.227 4.72.195.545.644.19.824-.169 1.705-3.389 2.805-8.724 1.716-11.61l-.008-.005Zm-15.42-2.874c-.67 1.197-1.127 2.753-1.244 4.11-.063.863.027 1.713.113 2.575.047.476.05 1.076-.332 1.388-.331.281-.881.309-1.435.348-2.72-.012-9.352 0-11.908-1.74l-.016-.012c-3.718-2.266-5.708-7.383-3.5-11.357.715-1.35 2.03-2.227 3.528-2.559 1.927-.44 4.05-.113 5.77.788.702.355 1.541.823 2.181 1.361 1.268 1.108 2.353 2.258 4.015 2.613.764.219 1.56.188 2.325.343 1.432.344 1.073 1.159.5 2.134l.003.008Z"/></g><path fill="#121212" d="M79.266 49V15.024h9.896c5.654 0 10.025 1.495 13.112 4.484 3.088 2.99 4.631 7.247 4.631 12.772 0 5.395-1.527 9.538-4.582 12.43-3.055 2.86-7.458 4.29-13.21 4.29h-9.847Zm6.288-5.8h2.925c2.567 0 4.745-.326 6.532-.976 1.788-.65 3.153-1.787 4.095-3.412.975-1.625 1.462-3.883 1.462-6.776 0-2.795-.471-5.005-1.413-6.63-.91-1.657-2.226-2.827-3.949-3.51-1.69-.714-3.737-1.072-6.142-1.072h-3.51V43.2Zm34.846 6.287c-2.34 0-4.42-.536-6.24-1.608-1.82-1.073-3.266-2.551-4.338-4.436-1.04-1.917-1.56-4.079-1.56-6.483 0-2.438.52-4.583 1.56-6.435 1.04-1.885 2.47-3.363 4.29-4.436 1.852-1.072 3.948-1.609 6.288-1.609 2.307 0 4.371.537 6.191 1.61 1.82 1.072 3.249 2.55 4.289 4.435 1.04 1.852 1.56 3.997 1.56 6.435 0 2.404-.52 4.55-1.56 6.434a11.846 11.846 0 0 1-4.289 4.485c-1.82 1.072-3.884 1.608-6.191 1.608Zm0-5.313c1.235 0 2.291-.292 3.168-.877.91-.585 1.593-1.414 2.048-2.486.487-1.073.731-2.356.731-3.851 0-1.528-.244-2.812-.731-3.851-.455-1.073-1.138-1.885-2.048-2.438-.877-.585-1.933-.877-3.168-.877-1.268 0-2.356.292-3.266.877-.91.553-1.609 1.365-2.096 2.438-.488 1.04-.731 2.323-.731 3.85 0 1.495.243 2.78.731 3.852.487 1.072 1.186 1.9 2.096 2.486.91.585 1.998.877 3.266.877Zm23.557 5.313c-2.112 0-3.932-.536-5.459-1.608-1.528-1.105-2.714-2.6-3.559-4.485-.812-1.917-1.218-4.062-1.218-6.434 0-2.633.455-4.875 1.365-6.727.942-1.853 2.193-3.267 3.753-4.241a9.246 9.246 0 0 1 5.118-1.512c1.3 0 2.503.277 3.608.83 1.137.52 2.112 1.315 2.924 2.388.813 1.072 1.349 2.437 1.609 4.094l-1.219-.34V15.023h5.996V49h-5.996v-6.435l1.414-.682c-.39 1.885-1.024 3.396-1.901 4.533-.845 1.105-1.836 1.902-2.974 2.389a8.997 8.997 0 0 1-3.461.682Zm1.658-5.557c1.202 0 2.226-.292 3.071-.877.877-.585 1.543-1.397 1.998-2.437.488-1.04.732-2.259.732-3.656 0-1.398-.244-2.617-.732-3.656-.455-1.04-1.121-1.837-1.998-2.389-.845-.585-1.869-.877-3.071-.877-1.17 0-2.194.292-3.071.877-.878.552-1.56 1.349-2.048 2.389-.455 1.007-.682 2.226-.682 3.656 0 1.43.227 2.664.682 3.704.488 1.04 1.17 1.853 2.048 2.438.877.552 1.901.828 3.071.828Zm25.797 5.557c-2.339 0-4.419-.536-6.239-1.608-1.82-1.073-3.266-2.551-4.339-4.436-1.039-1.917-1.559-4.079-1.559-6.483 0-2.438.52-4.583 1.559-6.435 1.04-1.885 2.47-3.363 4.29-4.436 1.853-1.072 3.949-1.609 6.288-1.609 2.308 0 4.371.537 6.191 1.61 1.82 1.072 3.25 2.55 4.29 4.435 1.04 1.852 1.56 3.997 1.56 6.435 0 2.404-.52 4.55-1.56 6.434a11.849 11.849 0 0 1-4.29 4.485c-1.82 1.072-3.883 1.608-6.191 1.608Zm0-5.313c1.235 0 2.292-.292 3.169-.877.91-.585 1.592-1.414 2.047-2.486.488-1.073.732-2.356.732-3.851 0-1.528-.244-2.812-.732-3.851-.455-1.073-1.137-1.885-2.047-2.438-.877-.585-1.934-.877-3.169-.877-1.267 0-2.356.292-3.266.877-.91.553-1.608 1.365-2.096 2.438-.487 1.04-.731 2.323-.731 3.85 0 1.495.244 2.78.731 3.852.488 1.072 1.186 1.9 2.096 2.486.91.585 1.999.877 3.266.877ZM196.372 49V15.024h11.212c3.835 0 6.727.828 8.677 2.486 1.95 1.624 2.925 4.078 2.925 7.36 0 3.283-.991 5.785-2.974 7.507-1.982 1.723-4.858 2.584-8.628 2.584h-4.972V49h-6.24Zm6.24-19.645h4.338c1.885 0 3.348-.325 4.388-.975 1.039-.682 1.559-1.836 1.559-3.46 0-1.56-.503-2.65-1.511-3.267-.975-.65-2.453-.975-4.436-.975h-4.338v8.677ZM236.133 49l-.487-3.607V33.84c0-1.43-.455-2.486-1.365-3.169-.878-.715-2.08-1.072-3.607-1.072-1.268 0-2.568.26-3.9.78a10.729 10.729 0 0 0-3.461 2.096l-3.071-4.144c1.69-1.364 3.412-2.34 5.167-2.924 1.787-.618 3.705-.927 5.752-.927 3.315 0 5.898.83 7.751 2.486 1.852 1.658 2.778 3.949 2.778 6.874V49h-5.557Zm-7.263.487c-1.755 0-3.331-.325-4.728-.974-1.365-.65-2.454-1.577-3.267-2.779-.779-1.202-1.169-2.584-1.169-4.144 0-1.397.276-2.583.828-3.558.585-1.007 1.349-1.771 2.291-2.291a8.353 8.353 0 0 1 2.681-1.024 16.925 16.925 0 0 1 3.218-.292h7.458v4.484h-6.581c-.52 0-1.04.05-1.56.147-.487.065-.91.243-1.267.536-.325.227-.569.52-.731.877a2.468 2.468 0 0 0-.244 1.121c0 .91.357 1.642 1.072 2.194.715.553 1.674.829 2.876.829 1.073 0 2.048-.228 2.925-.683.91-.487 1.625-1.137 2.145-1.95.552-.844.829-1.803.829-2.876l1.608 3.218c-.422 1.69-1.072 3.07-1.95 4.143-.844 1.04-1.819 1.804-2.924 2.291a8.602 8.602 0 0 1-3.51.731Zm17.316 9.457 4.875-11.796-9.067-22.18h6.629l5.655 16.135 5.752-16.135h6.532l-13.795 33.976h-6.581Zm21.7-9.944V24.968h6.093v6.24l-1.316 1.023c.228-1.527.618-2.795 1.17-3.802.552-1.007 1.202-1.787 1.95-2.34.78-.585 1.576-.991 2.388-1.219a8.43 8.43 0 0 1 2.487-.39c1.267 0 2.469.244 3.607.732 1.137.455 2.128 1.25 2.973 2.388.845 1.138 1.43 2.697 1.755 4.68l-3.607 1.316c.487-2.275 1.186-4.078 2.096-5.41.943-1.333 2.015-2.276 3.217-2.828a9.001 9.001 0 0 1 3.9-.878c2.047 0 3.705.455 4.972 1.365a7.945 7.945 0 0 1 2.779 3.51 10.98 10.98 0 0 1 .926 4.485V49h-6.045V35.302c0-1.202-.162-2.21-.487-3.022-.293-.845-.731-1.479-1.316-1.901-.585-.423-1.349-.634-2.291-.634-.975 0-1.804.26-2.486.78-.683.52-1.203 1.3-1.56 2.34-.325 1.04-.488 2.372-.488 3.997V49h-6.044V35.205c0-1.82-.342-3.185-1.024-4.095-.65-.91-1.609-1.365-2.876-1.365-1.008 0-1.869.26-2.584.78-.682.52-1.202 1.3-1.56 2.34-.357 1.04-.536 2.372-.536 3.997V49h-6.093Zm49.369.487c-2.08 0-3.867-.34-5.362-1.023-1.495-.683-2.73-1.593-3.705-2.73a11.848 11.848 0 0 1-2.096-3.949 15.982 15.982 0 0 1-.682-4.68c0-1.56.227-3.086.682-4.581a12.84 12.84 0 0 1 2.048-4.046c.91-1.203 2.079-2.161 3.509-2.876 1.463-.748 3.201-1.122 5.216-1.122 1.885 0 3.526.325 4.924.975 1.397.618 2.551 1.495 3.461 2.633.91 1.105 1.592 2.404 2.047 3.9.488 1.494.731 3.087.731 4.777 0 .227-.016.552-.048.974 0 .39-.033.813-.098 1.268h-16.428c.163 1.722.797 3.022 1.902 3.9 1.137.877 2.551 1.316 4.24 1.316 1.235 0 2.438-.211 3.608-.634a10.181 10.181 0 0 0 3.12-1.901l3.022 4.095c-1.138.877-2.21 1.592-3.217 2.145a11.304 11.304 0 0 1-3.169 1.17c-1.072.26-2.307.39-3.705.39Zm4.777-13.502c.065-.26.114-.52.147-.78a3.02 3.02 0 0 0 .097-.731 4.63 4.63 0 0 0-.39-1.902 4.983 4.983 0 0 0-1.072-1.608 4.33 4.33 0 0 0-1.658-1.024c-.617-.26-1.332-.39-2.144-.39-1.203 0-2.21.244-3.023.731-.812.488-1.43 1.122-1.852 1.901a6.754 6.754 0 0 0-.731 2.34h12.674l-2.048 1.463ZM330.466 49V24.968h6.094v5.46l-.975.097c.422-1.462 1.04-2.632 1.852-3.51a7.15 7.15 0 0 1 2.827-1.9 8.974 8.974 0 0 1 3.315-.635c2.73 0 4.859.78 6.386 2.34 1.56 1.528 2.34 3.689 2.34 6.484V49h-6.093V35.546c0-2.015-.358-3.477-1.073-4.387-.715-.943-1.836-1.414-3.363-1.414-1.17 0-2.145.276-2.925.829-.748.52-1.316 1.348-1.706 2.486-.39 1.137-.585 2.616-.585 4.436V49h-6.094Zm34.243.487c-1.3 0-2.503-.243-3.608-.73-1.105-.488-1.998-1.284-2.681-2.39-.65-1.104-.975-2.583-.975-4.435v-22.57l6.142-3.266v24.178c0 1.398.179 2.454.537 3.169.39.715 1.137 1.072 2.242 1.072.325 0 .682-.032 1.072-.097a12.95 12.95 0 0 0 1.365-.293v4.631a9.528 9.528 0 0 1-2.047.536c-.682.13-1.365.195-2.047.195Zm-11.651-19.79v-4.73h15.745v4.73h-15.745Zm26.284 19.79c-1.788 0-3.348-.26-4.68-.78-1.332-.52-2.47-1.17-3.412-1.95-.91-.78-1.641-1.527-2.194-2.242l4.144-3.607c.552.91 1.332 1.755 2.339 2.535 1.04.747 2.324 1.121 3.851 1.121 1.203 0 2.129-.227 2.779-.682.682-.488 1.024-1.09 1.024-1.804 0-.585-.212-1.056-.634-1.414-.422-.39-.991-.698-1.706-.926a26.406 26.406 0 0 0-2.389-.731c-.91-.26-1.852-.552-2.827-.877a11.966 11.966 0 0 1-2.681-1.268 6.835 6.835 0 0 1-1.999-2.096c-.487-.845-.731-1.901-.731-3.169 0-2.112.829-3.818 2.486-5.118 1.658-1.332 3.851-1.999 6.581-1.999 1.917 0 3.656.39 5.216 1.17 1.56.748 2.795 1.837 3.705 3.266l-3.754 2.974a5.395 5.395 0 0 0-2.34-2.096 6.483 6.483 0 0 0-3.022-.731c-.942 0-1.722.178-2.34.536-.585.357-.877.845-.877 1.462 0 .423.13.78.39 1.073.292.292.747.552 1.365.78.65.195 1.494.422 2.534.682a42.89 42.89 0 0 1 3.023.829c1.04.325 2.015.763 2.925 1.316a6.443 6.443 0 0 1 2.193 2.194c.553.91.829 2.063.829 3.46 0 1.593-.406 3.007-1.219 4.241-.812 1.203-1.95 2.145-3.412 2.828-1.463.682-3.185 1.023-5.167 1.023Z"/></svg>