<svg xmlns="http://www.w3.org/2000/svg" xmlns:xlink="http://www.w3.org/1999/xlink" width="220" zoomAndPan="magnify" viewBox="0 0 165 44.999999" height="60" preserveAspectRatio="xMidYMid meet" version="1.0"><defs><g/><clipPath id="207cc5475e"><path d="M 1.707031 7.941406 L 26.457031 7.941406 L 26.457031 37.191406 L 1.707031 37.191406 Z M 1.707031 7.941406 " clip-rule="nonzero"/></clipPath></defs><g fill="#312e81" fill-opacity="1"><g transform="translate(26.274141, 37.612931)"><g><path d="M 10.671875 -23.90625 L 13.78125 -23.90625 C 14.09375 -23.90625 14.25 -23.75 14.25 -23.4375 L 14.25 -0.484375 C 14.25 -0.160156 14.09375 0 13.78125 0 L 10.828125 0 C 10.546875 0 10.363281 -0.128906 10.28125 -0.390625 L 5.703125 -13.15625 L 5.5625 -13.15625 L 5.5625 -0.484375 C 5.5625 -0.160156 5.398438 0 5.078125 0 L 1.96875 0 C 1.65625 0 1.5 -0.160156 1.5 -0.484375 L 1.5 -23.4375 C 1.5 -23.75 1.65625 -23.90625 1.96875 -23.90625 L 4.9375 -23.90625 C 5.207031 -23.90625 5.382812 -23.78125 5.46875 -23.53125 L 10.015625 -10.828125 L 10.1875 -10.828125 L 10.1875 -23.4375 C 10.1875 -23.75 10.347656 -23.90625 10.671875 -23.90625 Z M 10.671875 -23.90625 "/></g></g></g><g fill="#312e81" fill-opacity="1"><g transform="translate(42.027927, 37.612931)"><g><path d="M 13.78125 -19.609375 L 13.78125 -12.3125 C 13.78125 -10.320312 13.050781 -9.007812 11.59375 -8.375 L 13.65625 -0.53125 C 13.757812 -0.175781 13.617188 0 13.234375 0 L 10.140625 0 C 9.859375 0 9.6875 -0.140625 9.625 -0.421875 L 7.625 -8.015625 L 5.5625 -8.015625 L 5.5625 -0.484375 C 5.5625 -0.160156 5.398438 0 5.078125 0 L 1.96875 0 C 1.65625 0 1.5 -0.160156 1.5 -0.484375 L 1.5 -23.4375 C 1.5 -23.75 1.65625 -23.90625 1.96875 -23.90625 L 9.46875 -23.90625 C 10.882812 -23.90625 11.957031 -23.539062 12.6875 -22.8125 C 13.414062 -22.09375 13.78125 -21.023438 13.78125 -19.609375 Z M 5.5625 -11.953125 L 8.515625 -11.953125 C 9.316406 -11.953125 9.71875 -12.351562 9.71875 -13.15625 L 9.71875 -18.765625 C 9.71875 -19.566406 9.316406 -19.96875 8.515625 -19.96875 L 5.5625 -19.96875 Z M 5.5625 -11.953125 "/></g></g></g><g fill="#312e81" fill-opacity="1"><g transform="translate(57.303416, 37.612931)"><g><path d="M 13.421875 -23.4375 L 13.421875 -20.4375 C 13.421875 -20.101562 13.257812 -19.9375 12.9375 -19.9375 L 5.46875 -19.9375 L 5.46875 -13.953125 L 11.171875 -13.953125 C 11.492188 -13.953125 11.65625 -13.785156 11.65625 -13.453125 L 11.65625 -10.484375 C 11.65625 -10.148438 11.492188 -9.984375 11.171875 -9.984375 L 5.46875 -9.984375 L 5.46875 -3.953125 L 12.9375 -3.953125 C 13.257812 -3.953125 13.421875 -3.789062 13.421875 -3.46875 L 13.421875 -0.484375 C 13.421875 -0.160156 13.257812 0 12.9375 0 L 1.9375 0 C 1.644531 0 1.5 -0.160156 1.5 -0.484375 L 1.5 -23.4375 C 1.5 -23.75 1.644531 -23.90625 1.9375 -23.90625 L 12.9375 -23.90625 C 13.257812 -23.90625 13.421875 -23.75 13.421875 -23.4375 Z M 13.421875 -23.4375 "/></g></g></g><g fill="#312e81" fill-opacity="1"><g transform="translate(72.220195, 37.612931)"><g><path d="M 15.90625 0 L 12.734375 0 C 12.472656 0 12.3125 -0.140625 12.25 -0.421875 L 11.421875 -4.78125 L 6.09375 -4.78125 L 5.296875 -0.421875 C 5.234375 -0.140625 5.070312 0 4.8125 0 L 1.609375 0 C 1.253906 0 1.125 -0.171875 1.21875 -0.515625 L 6.1875 -23.5 C 6.25 -23.769531 6.421875 -23.90625 6.703125 -23.90625 L 10.84375 -23.90625 C 11.125 -23.90625 11.296875 -23.769531 11.359375 -23.5 L 16.3125 -0.515625 C 16.375 -0.171875 16.238281 0 15.90625 0 Z M 10.671875 -8.25 L 8.765625 -18.6875 L 6.84375 -8.25 Z M 10.671875 -8.25 "/></g></g></g><g fill="#312e81" fill-opacity="1"><g transform="translate(89.737684, 37.612931)"><g><path d="M 5.5625 -3.953125 L 5.5625 -23.4375 C 5.5625 -23.75 5.398438 -23.90625 5.078125 -23.90625 L 1.96875 -23.90625 C 1.65625 -23.90625 1.5 -23.75 1.5 -23.4375 L 1.5 -0.484375 C 1.5 -0.160156 1.65625 0 1.96875 0 L 12.671875 0 C 12.992188 0 13.15625 -0.160156 13.15625 -0.484375 L 13.15625 -3.46875 C 13.15625 -3.789062 12.992188 -3.953125 12.671875 -3.953125 Z M 5.5625 -3.953125 "/></g></g></g><g fill="#312e81" fill-opacity="1"><g transform="translate(104.385422, 37.612931)"><g><path d="M 5.796875 -23.90625 L 9.140625 -23.90625 C 10.554688 -23.90625 11.628906 -23.539062 12.359375 -22.8125 C 13.085938 -22.09375 13.453125 -21.023438 13.453125 -19.609375 L 13.453125 -16.4375 C 13.453125 -16.125 13.289062 -15.96875 12.96875 -15.96875 L 9.859375 -15.96875 C 9.546875 -15.96875 9.390625 -16.125 9.390625 -16.4375 L 9.390625 -18.765625 C 9.390625 -19.566406 8.988281 -19.96875 8.1875 -19.96875 L 6.75 -19.96875 C 5.957031 -19.96875 5.5625 -19.566406 5.5625 -18.765625 L 5.5625 -14.640625 L 12.671875 -12.3125 C 13.191406 -12.09375 13.453125 -11.722656 13.453125 -11.203125 L 13.453125 -4.296875 C 13.453125 -2.910156 13.085938 -1.847656 12.359375 -1.109375 C 11.628906 -0.367188 10.554688 0 9.140625 0 L 5.796875 0 C 4.398438 0 3.332031 -0.367188 2.59375 -1.109375 C 1.863281 -1.847656 1.5 -2.910156 1.5 -4.296875 L 1.5 -7.4375 C 1.5 -7.757812 1.65625 -7.921875 1.96875 -7.921875 L 5.078125 -7.921875 C 5.398438 -7.921875 5.5625 -7.757812 5.5625 -7.4375 L 5.5625 -5.140625 C 5.5625 -4.347656 5.957031 -3.953125 6.75 -3.953125 L 8.1875 -3.953125 C 8.988281 -3.953125 9.390625 -4.347656 9.390625 -5.140625 L 9.390625 -9.109375 L 2.296875 -11.453125 C 1.765625 -11.628906 1.5 -11.992188 1.5 -12.546875 L 1.5 -19.609375 C 1.5 -21.023438 1.863281 -22.09375 2.59375 -22.8125 C 3.332031 -23.539062 4.398438 -23.90625 5.796875 -23.90625 Z M 5.796875 -23.90625 "/></g></g></g><g fill="#312e81" fill-opacity="1"><g transform="translate(119.332084, 37.612931)"><g><path d="M 9.390625 -13.921875 L 9.390625 -23.4375 C 9.390625 -23.75 9.546875 -23.90625 9.859375 -23.90625 L 12.9375 -23.90625 C 13.28125 -23.90625 13.453125 -23.75 13.453125 -23.4375 L 13.453125 -0.484375 C 13.453125 -0.160156 13.28125 0 12.9375 0 L 9.859375 0 C 9.546875 0 9.390625 -0.160156 9.390625 -0.484375 L 9.390625 -9.984375 L 5.5625 -9.984375 L 5.5625 -0.484375 C 5.5625 -0.160156 5.398438 0 5.078125 0 L 2 0 C 1.664062 0 1.5 -0.160156 1.5 -0.484375 L 1.5 -23.4375 C 1.5 -23.75 1.664062 -23.90625 2 -23.90625 L 5.078125 -23.90625 C 5.398438 -23.90625 5.5625 -23.75 5.5625 -23.4375 L 5.5625 -13.921875 Z M 9.390625 -13.921875 "/></g></g></g><g fill="#312e81" fill-opacity="1"><g transform="translate(134.278746, 37.612931)"><g><path d="M 1.5 -4.296875 L 1.5 -19.609375 C 1.5 -21.023438 1.863281 -22.09375 2.59375 -22.8125 C 3.332031 -23.539062 4.398438 -23.90625 5.796875 -23.90625 L 9.140625 -23.90625 C 10.554688 -23.90625 11.628906 -23.539062 12.359375 -22.8125 C 13.085938 -22.09375 13.453125 -21.023438 13.453125 -19.609375 L 13.453125 -4.296875 C 13.453125 -2.910156 13.085938 -1.847656 12.359375 -1.109375 C 11.628906 -0.367188 10.554688 0 9.140625 0 L 5.796875 0 C 4.398438 0 3.332031 -0.367188 2.59375 -1.109375 C 1.863281 -1.847656 1.5 -2.910156 1.5 -4.296875 Z M 6.671875 -3.859375 L 8.40625 -3.859375 C 9.195312 -3.859375 9.59375 -4.253906 9.59375 -5.046875 L 9.59375 -18.859375 C 9.59375 -19.660156 9.195312 -20.0625 8.40625 -20.0625 L 6.671875 -20.0625 C 5.867188 -20.0625 5.46875 -19.660156 5.46875 -18.859375 L 5.46875 -5.046875 C 5.46875 -4.253906 5.867188 -3.859375 6.671875 -3.859375 Z M 6.671875 -3.859375 "/></g></g></g><g fill="#312e81" fill-opacity="1"><g transform="translate(149.225408, 37.612931)"><g><path d="M 1.375 -23.90625 L 12.375 -23.90625 C 12.695312 -23.90625 12.859375 -23.75 12.859375 -23.4375 L 12.859375 -20.4375 C 12.859375 -20.125 12.695312 -19.96875 12.375 -19.96875 L 8.90625 -19.96875 L 8.90625 -0.484375 C 8.90625 -0.160156 8.742188 0 8.421875 0 L 5.328125 0 C 5.003906 0 4.84375 -0.160156 4.84375 -0.484375 L 4.84375 -19.96875 L 1.375 -19.96875 C 1.050781 -19.96875 0.890625 -20.125 0.890625 -20.4375 L 0.890625 -23.4375 C 0.890625 -23.75 1.050781 -23.90625 1.375 -23.90625 Z M 1.375 -23.90625 "/></g></g></g><g clip-path="url(#207cc5475e)"><path fill="#312e81" d="M 11.261719 37.054688 C 5.992188 37.054688 1.710938 32.769531 1.710938 27.503906 L 1.710938 7.945312 L 9.175781 7.945312 L 9.175781 27.625 C 9.175781 28.707031 10.054688 29.585938 11.136719 29.585938 L 21.351562 29.585938 L 26.265625 37.054688 Z M 17.953125 26.226562 L 17.953125 7.945312 L 25.417969 7.945312 L 25.417969 26.226562 Z M 17.953125 26.226562 " fill-opacity="1" fill-rule="nonzero"/></g></svg>
