<svg xmlns="http://www.w3.org/2000/svg" xmlns:xlink="http://www.w3.org/1999/xlink" width="40" zoomAndPan="magnify" viewBox="0 0 30 30.000001" height="40" preserveAspectRatio="xMidYMid meet" version="1.0"><defs><clipPath id="8fe2fbb7b3"><path d="M 0.484375 0 L 1 0 L 1 7 L 0.484375 7 Z M 0.484375 0 " clip-rule="nonzero"/></clipPath><clipPath id="28039b9b12"><path d="M 0.484375 0 L 7 0 L 7 1 L 0.484375 1 Z M 0.484375 0 " clip-rule="nonzero"/></clipPath><clipPath id="d2825820be"><path d="M 23.339844 0 L 29.507812 0 L 29.507812 0.433594 L 23.339844 0.433594 Z M 23.339844 0 " clip-rule="nonzero"/></clipPath><clipPath id="1e0a283a3b"><path d="M 29.082031 0 L 29.507812 0 L 29.507812 6.113281 L 29.082031 6.113281 Z M 29.082031 0 " clip-rule="nonzero"/></clipPath><clipPath id="dcc6cb988c"><path d="M 29.082031 22.910156 L 29.507812 22.910156 L 29.507812 29.03125 L 29.082031 29.03125 Z M 29.082031 22.910156 " clip-rule="nonzero"/></clipPath><clipPath id="308ea800af"><path d="M 23.339844 28.59375 L 29.507812 28.59375 L 29.507812 29.03125 L 23.339844 29.03125 Z M 23.339844 28.59375 " clip-rule="nonzero"/></clipPath><clipPath id="3f1e4a6142"><path d="M 0.488281 28.59375 L 6.605469 28.59375 L 6.605469 29.03125 L 0.488281 29.03125 Z M 0.488281 28.59375 " clip-rule="nonzero"/></clipPath><clipPath id="35037e2c44"><path d="M 0.488281 22.910156 L 0.921875 22.910156 L 0.921875 29.03125 L 0.488281 29.03125 Z M 0.488281 22.910156 " clip-rule="nonzero"/></clipPath><clipPath id="84e6b53038"><path d="M 11 6.621094 L 20 6.621094 L 20 16 L 11 16 Z M 11 6.621094 " clip-rule="nonzero"/></clipPath><clipPath id="7b4eb6d156"><path d="M 7.550781 15 L 22.792969 15 L 22.792969 23.316406 L 7.550781 23.316406 Z M 7.550781 15 " clip-rule="nonzero"/></clipPath></defs><g clip-path="url(#8fe2fbb7b3)"><path fill="#1bcfc4" d="M 0.488281 0 L 0.488281 6.109375 L 0.910156 6.109375 L 0.910156 0 L 0.488281 0 " fill-opacity="1" fill-rule="nonzero"/></g><g clip-path="url(#28039b9b12)"><path fill="#1bcfc4" d="M 0.488281 0 L 0.488281 0.421875 L 6.601562 0.421875 L 6.601562 0 L 0.488281 0 " fill-opacity="1" fill-rule="nonzero"/></g><g clip-path="url(#d2825820be)"><path fill="#1bcfc4" d="M 29.507812 0 L 23.398438 0 L 23.398438 0.421875 L 29.507812 0.421875 L 29.507812 0 " fill-opacity="1" fill-rule="nonzero"/></g><g clip-path="url(#1e0a283a3b)"><path fill="#1bcfc4" d="M 29.507812 0 L 29.085938 0 L 29.085938 6.113281 L 29.507812 6.113281 L 29.507812 0 " fill-opacity="1" fill-rule="nonzero"/></g><g clip-path="url(#dcc6cb988c)"><path fill="#1bcfc4" d="M 29.507812 29.03125 L 29.507812 22.921875 L 29.085938 22.921875 L 29.085938 29.03125 L 29.507812 29.03125 " fill-opacity="1" fill-rule="nonzero"/></g><g clip-path="url(#308ea800af)"><path fill="#1bcfc4" d="M 29.507812 29.03125 L 29.507812 28.609375 L 23.398438 28.609375 L 23.398438 29.03125 L 29.507812 29.03125 " fill-opacity="1" fill-rule="nonzero"/></g><g clip-path="url(#3f1e4a6142)"><path fill="#1bcfc4" d="M 0.488281 29.03125 L 6.601562 29.03125 L 6.601562 28.609375 L 0.488281 28.609375 L 0.488281 29.03125 " fill-opacity="1" fill-rule="nonzero"/></g><g clip-path="url(#35037e2c44)"><path fill="#1bcfc4" d="M 0.488281 29.03125 L 0.910156 29.03125 L 0.910156 22.917969 L 0.488281 22.917969 L 0.488281 29.03125 " fill-opacity="1" fill-rule="nonzero"/></g><g clip-path="url(#84e6b53038)"><path fill="#1bcfc4" d="M 15.113281 15.234375 C 17.335938 15.234375 19.144531 12.875 19.144531 10.652344 C 19.144531 8.429688 17.335938 6.621094 15.113281 6.621094 C 12.890625 6.621094 11.082031 8.429688 11.082031 10.652344 C 11.082031 12.875 12.890625 15.234375 15.113281 15.234375 Z M 15.113281 15.234375 " fill-opacity="1" fill-rule="nonzero"/></g><g clip-path="url(#7b4eb6d156)"><path fill="#1bcfc4" d="M 18.140625 15.277344 C 17.359375 15.871094 16.382812 16.226562 15.324219 16.226562 L 14.902344 16.226562 C 13.84375 16.226562 12.871094 15.871094 12.085938 15.277344 C 9.535156 15.6875 7.585938 17.902344 7.585938 20.570312 C 7.585938 22.035156 10.957031 23.226562 15.113281 23.226562 C 19.269531 23.226562 22.640625 22.035156 22.640625 20.570312 C 22.640625 17.902344 20.691406 15.6875 18.140625 15.277344 Z M 18.140625 15.277344 " fill-opacity="1" fill-rule="nonzero"/></g></svg>