<svg xmlns="http://www.w3.org/2000/svg" xmlns:xlink="http://www.w3.org/1999/xlink" width="40" zoomAndPan="magnify" viewBox="0 0 30 30.000001" height="40" preserveAspectRatio="xMidYMid meet" version="1.0"><defs><clipPath id="e563b79c85"><path d="M 0.484375 0 L 1 0 L 1 7 L 0.484375 7 Z M 0.484375 0 " clip-rule="nonzero"/></clipPath><clipPath id="94622580f2"><path d="M 0.484375 0 L 7 0 L 7 1 L 0.484375 1 Z M 0.484375 0 " clip-rule="nonzero"/></clipPath><clipPath id="de1a77366e"><path d="M 23.339844 0 L 29.507812 0 L 29.507812 0.433594 L 23.339844 0.433594 Z M 23.339844 0 " clip-rule="nonzero"/></clipPath><clipPath id="6b08782c15"><path d="M 29.082031 0 L 29.507812 0 L 29.507812 6.113281 L 29.082031 6.113281 Z M 29.082031 0 " clip-rule="nonzero"/></clipPath><clipPath id="9b7b0a072e"><path d="M 29.082031 22.910156 L 29.507812 22.910156 L 29.507812 29.03125 L 29.082031 29.03125 Z M 29.082031 22.910156 " clip-rule="nonzero"/></clipPath><clipPath id="638146d3d3"><path d="M 23.339844 28.59375 L 29.507812 28.59375 L 29.507812 29.03125 L 23.339844 29.03125 Z M 23.339844 28.59375 " clip-rule="nonzero"/></clipPath><clipPath id="b13cda6090"><path d="M 0.488281 28.59375 L 6.605469 28.59375 L 6.605469 29.03125 L 0.488281 29.03125 Z M 0.488281 28.59375 " clip-rule="nonzero"/></clipPath><clipPath id="101cbf6897"><path d="M 0.488281 22.910156 L 0.921875 22.910156 L 0.921875 29.03125 L 0.488281 29.03125 Z M 0.488281 22.910156 " clip-rule="nonzero"/></clipPath><clipPath id="523568bd1c"><path d="M 4.839844 12 L 25.160156 12 L 25.160156 23.804688 L 4.839844 23.804688 Z M 4.839844 12 " clip-rule="nonzero"/></clipPath></defs><g clip-path="url(#e563b79c85)"><path fill="#1bcfc4" d="M 0.488281 0 L 0.488281 6.109375 L 0.910156 6.109375 L 0.910156 0 L 0.488281 0 " fill-opacity="1" fill-rule="nonzero"/></g><g clip-path="url(#94622580f2)"><path fill="#1bcfc4" d="M 0.488281 0 L 0.488281 0.421875 L 6.601562 0.421875 L 6.601562 0 L 0.488281 0 " fill-opacity="1" fill-rule="nonzero"/></g><g clip-path="url(#de1a77366e)"><path fill="#1bcfc4" d="M 29.507812 0 L 23.398438 0 L 23.398438 0.421875 L 29.507812 0.421875 L 29.507812 0 " fill-opacity="1" fill-rule="nonzero"/></g><g clip-path="url(#6b08782c15)"><path fill="#1bcfc4" d="M 29.507812 0 L 29.085938 0 L 29.085938 6.113281 L 29.507812 6.113281 L 29.507812 0 " fill-opacity="1" fill-rule="nonzero"/></g><g clip-path="url(#9b7b0a072e)"><path fill="#1bcfc4" d="M 29.507812 29.03125 L 29.507812 22.921875 L 29.085938 22.921875 L 29.085938 29.03125 L 29.507812 29.03125 " fill-opacity="1" fill-rule="nonzero"/></g><g clip-path="url(#638146d3d3)"><path fill="#1bcfc4" d="M 29.507812 29.03125 L 29.507812 28.609375 L 23.398438 28.609375 L 23.398438 29.03125 L 29.507812 29.03125 " fill-opacity="1" fill-rule="nonzero"/></g><g clip-path="url(#b13cda6090)"><path fill="#1bcfc4" d="M 0.488281 29.03125 L 6.601562 29.03125 L 6.601562 28.609375 L 0.488281 28.609375 L 0.488281 29.03125 " fill-opacity="1" fill-rule="nonzero"/></g><g clip-path="url(#101cbf6897)"><path fill="#1bcfc4" d="M 0.488281 29.03125 L 0.910156 29.03125 L 0.910156 22.917969 L 0.488281 22.917969 L 0.488281 29.03125 " fill-opacity="1" fill-rule="nonzero"/></g><path fill="#1bcfc4" d="M 10.066406 8.566406 C 9.972656 9.082031 10.035156 9.660156 10.039062 10.191406 C 10.046875 10.75 10.066406 11.292969 10.117188 11.84375 C 10.164062 12.371094 11.066406 12.449219 11.175781 11.917969 C 11.304688 11.320312 11.367188 10.761719 11.355469 10.15625 C 11.332031 9.566406 11.3125 8.925781 11.085938 8.375 C 10.996094 8.160156 10.722656 8.042969 10.507812 8.085938 C 10.253906 8.132812 10.117188 8.332031 10.066406 8.566406 Z M 10.066406 8.566406 " fill-opacity="1" fill-rule="nonzero"/><path fill="#1bcfc4" d="M 17.546875 8.390625 C 17.339844 8.800781 17.421875 9.414062 17.441406 9.867188 C 17.460938 10.398438 17.523438 10.886719 17.664062 11.394531 C 17.847656 12.089844 18.726562 11.988281 18.867188 11.324219 C 18.984375 10.777344 18.988281 10.273438 18.929688 9.714844 C 18.871094 9.214844 18.824219 8.617188 18.5 8.203125 C 18.210938 7.839844 17.71875 8.039062 17.546875 8.390625 Z M 17.546875 8.390625 " fill-opacity="1" fill-rule="nonzero"/><g clip-path="url(#523568bd1c)"><path fill="#1bcfc4" d="M 4.882812 17.117188 C 4.859375 18.15625 5.382812 19.132812 5.960938 19.964844 C 6.53125 20.785156 7.261719 21.5 8.078125 22.070312 C 9.640625 23.15625 11.554688 23.777344 13.453125 23.859375 C 15.378906 23.941406 17.351562 23.542969 19.042969 22.609375 C 20.730469 21.679688 22.152344 20.308594 23.191406 18.6875 C 23.765625 17.792969 24.226562 16.816406 24.546875 15.804688 C 24.71875 15.28125 24.859375 14.738281 24.945312 14.195312 C 25.03125 13.65625 25.140625 13.046875 24.96875 12.523438 C 24.800781 12.027344 24.199219 11.957031 23.964844 12.449219 C 23.777344 12.839844 23.757812 13.273438 23.667969 13.699219 C 23.578125 14.117188 23.480469 14.539062 23.359375 14.953125 C 23.125 15.742188 22.808594 16.511719 22.402344 17.226562 C 21.582031 18.679688 20.453125 19.980469 19.050781 20.902344 C 16.273438 22.71875 12.515625 22.964844 9.542969 21.4375 C 8.679688 20.992188 7.875 20.394531 7.214844 19.683594 C 6.464844 18.878906 6.035156 17.945312 5.519531 16.988281 C 5.371094 16.71875 4.886719 16.765625 4.882812 17.117188 Z M 4.882812 17.117188 " fill-opacity="1" fill-rule="nonzero"/></g></svg>