<svg xmlns="http://www.w3.org/2000/svg" xmlns:xlink="http://www.w3.org/1999/xlink" width="40" zoomAndPan="magnify" viewBox="0 0 30 30.000001" height="40" preserveAspectRatio="xMidYMid meet" version="1.0"><defs><clipPath id="1372b8e046"><path d="M 0.484375 0 L 1 0 L 1 7 L 0.484375 7 Z M 0.484375 0 " clip-rule="nonzero"/></clipPath><clipPath id="730703daad"><path d="M 0.484375 0 L 7 0 L 7 1 L 0.484375 1 Z M 0.484375 0 " clip-rule="nonzero"/></clipPath><clipPath id="40b9c8d7e8"><path d="M 23.339844 0 L 29.507812 0 L 29.507812 0.433594 L 23.339844 0.433594 Z M 23.339844 0 " clip-rule="nonzero"/></clipPath><clipPath id="69bb972686"><path d="M 29.082031 0 L 29.507812 0 L 29.507812 6.113281 L 29.082031 6.113281 Z M 29.082031 0 " clip-rule="nonzero"/></clipPath><clipPath id="0970df2d37"><path d="M 29.082031 22.910156 L 29.507812 22.910156 L 29.507812 29.03125 L 29.082031 29.03125 Z M 29.082031 22.910156 " clip-rule="nonzero"/></clipPath><clipPath id="e8131ba865"><path d="M 23.339844 28.59375 L 29.507812 28.59375 L 29.507812 29.03125 L 23.339844 29.03125 Z M 23.339844 28.59375 " clip-rule="nonzero"/></clipPath><clipPath id="3b3665950c"><path d="M 0.488281 28.59375 L 6.605469 28.59375 L 6.605469 29.03125 L 0.488281 29.03125 Z M 0.488281 28.59375 " clip-rule="nonzero"/></clipPath><clipPath id="20487def99"><path d="M 0.488281 22.910156 L 0.921875 22.910156 L 0.921875 29.03125 L 0.488281 29.03125 Z M 0.488281 22.910156 " clip-rule="nonzero"/></clipPath><clipPath id="a3ac20c006"><path d="M 6.179688 5.699219 L 23.601562 5.699219 L 23.601562 23.117188 L 6.179688 23.117188 Z M 6.179688 5.699219 " clip-rule="nonzero"/></clipPath></defs><g clip-path="url(#1372b8e046)"><path fill="#1bcfc4" d="M 0.488281 0 L 0.488281 6.109375 L 0.910156 6.109375 L 0.910156 0 L 0.488281 0 " fill-opacity="1" fill-rule="nonzero"/></g><g clip-path="url(#730703daad)"><path fill="#1bcfc4" d="M 0.488281 0 L 0.488281 0.421875 L 6.601562 0.421875 L 6.601562 0 L 0.488281 0 " fill-opacity="1" fill-rule="nonzero"/></g><g clip-path="url(#40b9c8d7e8)"><path fill="#1bcfc4" d="M 29.507812 0 L 23.398438 0 L 23.398438 0.421875 L 29.507812 0.421875 L 29.507812 0 " fill-opacity="1" fill-rule="nonzero"/></g><g clip-path="url(#69bb972686)"><path fill="#1bcfc4" d="M 29.507812 0 L 29.085938 0 L 29.085938 6.113281 L 29.507812 6.113281 L 29.507812 0 " fill-opacity="1" fill-rule="nonzero"/></g><g clip-path="url(#0970df2d37)"><path fill="#1bcfc4" d="M 29.507812 29.03125 L 29.507812 22.921875 L 29.085938 22.921875 L 29.085938 29.03125 L 29.507812 29.03125 " fill-opacity="1" fill-rule="nonzero"/></g><g clip-path="url(#e8131ba865)"><path fill="#1bcfc4" d="M 29.507812 29.03125 L 29.507812 28.609375 L 23.398438 28.609375 L 23.398438 29.03125 L 29.507812 29.03125 " fill-opacity="1" fill-rule="nonzero"/></g><g clip-path="url(#3b3665950c)"><path fill="#1bcfc4" d="M 0.488281 29.03125 L 6.601562 29.03125 L 6.601562 28.609375 L 0.488281 28.609375 L 0.488281 29.03125 " fill-opacity="1" fill-rule="nonzero"/></g><g clip-path="url(#20487def99)"><path fill="#1bcfc4" d="M 0.488281 29.03125 L 0.910156 29.03125 L 0.910156 22.917969 L 0.488281 22.917969 L 0.488281 29.03125 " fill-opacity="1" fill-rule="nonzero"/></g><g clip-path="url(#a3ac20c006)"><path fill="#1bcfc4" d="M 8.28125 17.296875 C 8.171875 17.234375 8.070312 17.171875 7.96875 17.109375 C 6.828125 16.386719 6.179688 15.476562 6.179688 14.511719 C 6.179688 13.550781 6.828125 12.640625 7.96875 11.917969 C 8.070312 11.855469 8.171875 11.792969 8.28125 11.730469 C 8.25 11.613281 8.21875 11.492188 8.191406 11.378906 C 7.894531 10.0625 8.082031 8.960938 8.761719 8.28125 C 9.445312 7.597656 10.542969 7.414062 11.859375 7.707031 C 11.976562 7.734375 12.097656 7.765625 12.214844 7.796875 C 12.277344 7.6875 12.339844 7.585938 12.402344 7.484375 C 13.125 6.34375 14.035156 5.695312 14.996094 5.695312 C 15.960938 5.695312 16.871094 6.34375 17.59375 7.484375 C 17.65625 7.585938 17.71875 7.6875 17.777344 7.796875 C 17.898438 7.765625 18.015625 7.734375 18.132812 7.707031 C 19.449219 7.414062 20.550781 7.597656 21.230469 8.28125 C 21.914062 8.960938 22.097656 10.0625 21.804688 11.378906 C 21.777344 11.492188 21.746094 11.613281 21.714844 11.730469 C 21.820312 11.792969 21.925781 11.855469 22.027344 11.917969 C 23.167969 12.640625 23.8125 13.550781 23.8125 14.511719 C 23.8125 15.476562 23.167969 16.386719 22.027344 17.109375 C 21.925781 17.171875 21.820312 17.234375 21.714844 17.296875 C 21.746094 17.414062 21.777344 17.535156 21.804688 17.648438 C 22.097656 18.964844 21.914062 20.066406 21.230469 20.746094 C 20.550781 21.429688 19.449219 21.613281 18.132812 21.320312 C 18.015625 21.292969 17.898438 21.261719 17.777344 21.230469 C 17.71875 21.335938 17.65625 21.441406 17.59375 21.542969 C 16.871094 22.683594 15.960938 23.328125 14.996094 23.328125 C 14.035156 23.328125 13.125 22.683594 12.402344 21.542969 C 12.339844 21.441406 12.277344 21.335938 12.214844 21.230469 C 12.097656 21.261719 11.976562 21.292969 11.859375 21.320312 C 10.542969 21.613281 9.445312 21.429688 8.761719 20.746094 C 8.082031 20.066406 7.894531 18.964844 8.191406 17.648438 C 8.21875 17.535156 8.25 17.414062 8.28125 17.296875 Z M 8.476562 12.335938 C 8.417969 12.371094 8.359375 12.410156 8.300781 12.445312 C 7.375 13.03125 6.804688 13.734375 6.804688 14.511719 C 6.804688 15.292969 7.375 15.996094 8.300781 16.582031 C 8.359375 16.617188 8.417969 16.65625 8.476562 16.691406 C 8.730469 15.996094 9.097656 15.261719 9.5625 14.511719 C 9.097656 13.765625 8.730469 13.03125 8.476562 12.335938 Z M 11.925781 8.363281 C 11.859375 8.347656 11.792969 8.332031 11.726562 8.316406 C 10.65625 8.074219 9.753906 8.167969 9.203125 8.71875 C 8.652344 9.273438 8.558594 10.171875 8.800781 11.242188 C 8.816406 11.308594 8.832031 11.375 8.847656 11.441406 C 9.519531 11.132812 10.296875 10.871094 11.15625 10.671875 C 11.351562 9.8125 11.613281 9.035156 11.925781 8.363281 Z M 17.175781 7.992188 C 17.136719 7.933594 17.101562 7.875 17.066406 7.816406 C 16.480469 6.894531 15.777344 6.320312 14.996094 6.320312 C 14.21875 6.320312 13.515625 6.894531 12.929688 7.816406 C 12.890625 7.875 12.855469 7.933594 12.820312 7.992188 C 13.515625 8.246094 14.25 8.613281 14.996094 9.082031 C 15.742188 8.613281 16.480469 8.246094 17.175781 7.992188 Z M 21.148438 11.441406 C 21.164062 11.375 21.179688 11.308594 21.195312 11.242188 C 21.433594 10.171875 21.34375 9.273438 20.792969 8.71875 C 20.238281 8.167969 19.335938 8.074219 18.269531 8.316406 C 18.203125 8.332031 18.136719 8.347656 18.070312 8.363281 C 18.378906 9.035156 18.640625 9.8125 18.839844 10.671875 C 19.699219 10.871094 20.476562 11.132812 21.148438 11.441406 Z M 21.515625 16.691406 C 21.578125 16.65625 21.636719 16.617188 21.695312 16.582031 C 22.617188 15.996094 23.191406 15.292969 23.191406 14.511719 C 23.191406 13.734375 22.617188 13.03125 21.695312 12.445312 C 21.636719 12.410156 21.578125 12.371094 21.515625 12.335938 C 21.261719 13.03125 20.898438 13.765625 20.429688 14.511719 C 20.898438 15.261719 21.261719 15.996094 21.515625 16.691406 Z M 18.070312 20.664062 C 18.136719 20.679688 18.203125 20.695312 18.269531 20.710938 C 19.335938 20.949219 20.238281 20.859375 20.792969 20.308594 C 21.34375 19.753906 21.433594 18.855469 21.195312 17.785156 C 21.179688 17.71875 21.164062 17.652344 21.148438 17.585938 C 20.476562 17.894531 19.699219 18.15625 18.839844 18.355469 C 18.640625 19.214844 18.378906 19.992188 18.070312 20.664062 Z M 12.820312 21.035156 C 12.855469 21.09375 12.890625 21.152344 12.929688 21.210938 C 13.515625 22.132812 14.21875 22.707031 14.996094 22.707031 C 15.777344 22.707031 16.480469 22.132812 17.066406 21.210938 C 17.101562 21.152344 17.136719 21.09375 17.175781 21.035156 C 16.480469 20.777344 15.742188 20.414062 14.996094 19.945312 C 14.25 20.414062 13.515625 20.777344 12.820312 21.035156 Z M 8.847656 17.585938 C 8.832031 17.652344 8.816406 17.71875 8.800781 17.785156 C 8.558594 18.855469 8.652344 19.753906 9.203125 20.308594 C 9.753906 20.859375 10.65625 20.949219 11.726562 20.710938 C 11.792969 20.695312 11.859375 20.679688 11.925781 20.664062 C 11.613281 19.992188 11.351562 19.214844 11.15625 18.355469 C 10.296875 18.15625 9.519531 17.894531 8.847656 17.585938 Z M 11.015625 11.34375 C 10.28125 11.53125 9.613281 11.765625 9.03125 12.042969 C 9.246094 12.648438 9.550781 13.289062 9.941406 13.941406 C 10.207031 13.554688 10.5 13.167969 10.816406 12.78125 C 10.863281 12.285156 10.933594 11.804688 11.015625 11.34375 Z M 9.941406 15.085938 C 9.550781 15.738281 9.246094 16.378906 9.03125 16.984375 C 9.613281 17.261719 10.28125 17.496094 11.015625 17.683594 C 10.933594 17.222656 10.863281 16.742188 10.816406 16.246094 C 10.5 15.859375 10.207031 15.472656 9.941406 15.085938 Z M 14.425781 9.457031 C 13.773438 9.066406 13.132812 8.761719 12.527344 8.546875 C 12.25 9.128906 12.011719 9.796875 11.828125 10.53125 C 12.289062 10.449219 12.769531 10.382812 13.265625 10.335938 C 13.652344 10.015625 14.039062 9.722656 14.425781 9.457031 Z M 18.167969 10.53125 C 17.980469 9.796875 17.746094 9.128906 17.46875 8.546875 C 16.863281 8.761719 16.222656 9.066406 15.570312 9.457031 C 15.957031 9.722656 16.34375 10.015625 16.730469 10.335938 C 17.226562 10.382812 17.707031 10.449219 18.167969 10.53125 Z M 20.054688 13.941406 C 20.441406 13.289062 20.75 12.648438 20.960938 12.042969 C 20.382812 11.765625 19.714844 11.53125 18.976562 11.34375 C 19.0625 11.804688 19.128906 12.285156 19.175781 12.78125 C 19.496094 13.167969 19.789062 13.554688 20.054688 13.941406 Z M 18.976562 17.683594 C 19.714844 17.496094 20.382812 17.261719 20.960938 16.984375 C 20.75 16.378906 20.441406 15.738281 20.054688 15.085938 C 19.789062 15.472656 19.496094 15.859375 19.175781 16.246094 C 19.128906 16.742188 19.0625 17.222656 18.976562 17.683594 Z M 15.570312 19.570312 C 16.222656 19.960938 16.863281 20.265625 17.46875 20.476562 C 17.746094 19.898438 17.980469 19.230469 18.167969 18.496094 C 17.707031 18.578125 17.226562 18.644531 16.730469 18.691406 C 16.34375 19.011719 15.957031 19.304688 15.570312 19.570312 Z M 11.828125 18.496094 C 12.011719 19.230469 12.25 19.898438 12.527344 20.476562 C 13.132812 20.265625 13.773438 19.960938 14.425781 19.570312 C 14.039062 19.304688 13.652344 19.011719 13.265625 18.691406 C 12.769531 18.644531 12.289062 18.578125 11.828125 18.496094 Z M 10.746094 13.878906 C 10.589844 14.089844 10.441406 14.300781 10.300781 14.511719 C 10.441406 14.722656 10.589844 14.9375 10.746094 15.148438 C 10.742188 14.9375 10.738281 14.726562 10.738281 14.511719 C 10.738281 14.300781 10.742188 14.089844 10.746094 13.878906 Z M 11.675781 11.195312 C 11.628906 11.441406 11.582031 11.695312 11.542969 11.957031 C 11.6875 11.804688 11.835938 11.652344 11.984375 11.5 C 12.136719 11.351562 12.289062 11.203125 12.441406 11.0625 C 12.179688 11.097656 11.925781 11.144531 11.675781 11.195312 Z M 11.542969 17.070312 C 11.582031 17.332031 11.628906 17.585938 11.675781 17.832031 C 11.925781 17.882812 12.179688 17.929688 12.441406 17.964844 C 12.289062 17.824219 12.136719 17.675781 11.984375 17.527344 C 11.835938 17.375 11.6875 17.222656 11.542969 17.070312 Z M 14.996094 9.820312 C 14.785156 9.957031 14.574219 10.109375 14.363281 10.265625 C 14.574219 10.257812 14.785156 10.253906 14.996094 10.253906 C 15.210938 10.253906 15.421875 10.257812 15.632812 10.265625 C 15.417969 10.109375 15.207031 9.957031 14.996094 9.820312 Z M 18.316406 11.195312 C 18.070312 11.144531 17.8125 11.097656 17.554688 11.0625 C 17.707031 11.203125 17.859375 11.351562 18.011719 11.5 C 18.160156 11.652344 18.308594 11.804688 18.449219 11.957031 C 18.410156 11.695312 18.367188 11.441406 18.316406 11.195312 Z M 19.691406 14.511719 C 19.550781 14.300781 19.402344 14.089844 19.246094 13.878906 C 19.253906 14.089844 19.257812 14.300781 19.257812 14.511719 C 19.257812 14.726562 19.253906 14.9375 19.246094 15.148438 C 19.402344 14.9375 19.550781 14.722656 19.691406 14.511719 Z M 18.316406 17.832031 C 18.367188 17.585938 18.410156 17.332031 18.449219 17.070312 C 18.308594 17.222656 18.160156 17.375 18.011719 17.527344 C 17.859375 17.675781 17.707031 17.824219 17.554688 17.964844 C 17.8125 17.929688 18.070312 17.882812 18.316406 17.832031 Z M 14.996094 19.207031 C 15.207031 19.066406 15.417969 18.917969 15.632812 18.761719 C 15.421875 18.769531 15.210938 18.773438 14.996094 18.773438 C 14.785156 18.773438 14.574219 18.769531 14.363281 18.761719 C 14.574219 18.917969 14.785156 19.066406 14.996094 19.207031 Z M 13.65625 15.140625 L 13.191406 16.28125 L 12.628906 16.050781 L 13.980469 12.726562 L 14.542969 12.726562 L 15.898438 16.050781 L 15.335938 16.28125 L 14.871094 15.140625 Z M 14.625 14.53125 L 14.261719 13.648438 L 13.902344 14.53125 Z M 16.210938 12.679688 L 16.820312 12.679688 L 16.820312 16.21875 L 16.210938 16.21875 Z M 16.210938 12.679688 " fill-opacity="1" fill-rule="evenodd"/></g></svg>